<?xml version="1.0" encoding="UTF-8"?>
<svg xmlns="http://www.w3.org/2000/svg" xmlns:xlink="http://www.w3.org/1999/xlink" width="18pt" height="18pt" viewBox="0 0 18 18" version="1.1">
<g id="surface1">
<path style=" stroke:none;fill-rule:nonzero;fill:rgb(33.72549%,23.921569%,48.627451%);fill-opacity:1;" d="M 0 15.679688 C 0 16.960938 1.039062 18 2.320312 18 L 15.679688 18 C 16.960938 18 18 16.960938 18 15.679688 L 18 2.320312 C 18 1.039062 16.960938 0 15.679688 0 L 2.320312 0 C 1.039062 0 0 1.039062 0 2.320312 Z M 0 15.679688 "/>
<path style=" stroke:none;fill-rule:nonzero;fill:rgb(100%,100%,100%);fill-opacity:1;" d="M 7.464844 7.960938 L 7.464844 5.414062 L 9.707031 5.414062 C 9.921875 5.414062 10.128906 5.429688 10.328125 5.464844 C 10.523438 5.503906 10.699219 5.566406 10.851562 5.65625 C 11.003906 5.75 11.128906 5.875 11.21875 6.039062 C 11.3125 6.203125 11.355469 6.410156 11.355469 6.664062 C 11.355469 7.121094 11.21875 7.453125 10.945312 7.65625 C 10.667969 7.859375 10.320312 7.960938 9.890625 7.960938 Z M 5.066406 3.550781 L 5.066406 14.449219 L 10.347656 14.449219 C 10.835938 14.449219 11.3125 14.386719 11.777344 14.265625 C 12.238281 14.144531 12.652344 13.957031 13.011719 13.703125 C 13.375 13.445312 13.660156 13.117188 13.875 12.714844 C 14.089844 12.316406 14.195312 11.839844 14.195312 11.289062 C 14.195312 10.609375 14.03125 10.023438 13.699219 9.542969 C 13.367188 9.058594 12.867188 8.71875 12.195312 8.527344 C 12.683594 8.292969 13.054688 7.992188 13.300781 7.625 C 13.550781 7.261719 13.675781 6.800781 13.675781 6.253906 C 13.675781 5.742188 13.59375 5.316406 13.425781 4.96875 C 13.257812 4.625 13.019531 4.347656 12.714844 4.136719 C 12.410156 3.929688 12.042969 3.78125 11.617188 3.6875 C 11.1875 3.597656 10.714844 3.550781 10.195312 3.550781 Z M 7.464844 12.585938 L 7.464844 9.59375 L 10.074219 9.59375 C 10.59375 9.59375 11.011719 9.714844 11.324219 9.953125 C 11.640625 10.191406 11.800781 10.59375 11.800781 11.152344 C 11.800781 11.4375 11.75 11.671875 11.652344 11.855469 C 11.558594 12.039062 11.429688 12.183594 11.265625 12.289062 C 11.101562 12.394531 10.914062 12.472656 10.699219 12.519531 C 10.488281 12.5625 10.261719 12.585938 10.027344 12.585938 Z M 7.464844 12.585938 "/>
</g>
</svg>
