<?xml version="1.0" encoding="UTF-8"?>
<svg xmlns="http://www.w3.org/2000/svg" xmlns:xlink="http://www.w3.org/1999/xlink" width="18pt" height="18pt" viewBox="0 0 18 18" version="1.1">
<g id="surface1">
<path style=" stroke:none;fill-rule:nonzero;fill:rgb(0%,0%,0%);fill-opacity:1;" d="M 16.792969 4.5 C 16.667969 4.28125 16.496094 4.09375 16.304688 3.984375 L 9.695312 0.164062 C 9.3125 -0.0546875 8.691406 -0.0546875 8.308594 0.164062 L 1.695312 3.984375 C 1.3125 4.203125 1.003906 4.742188 1.003906 5.183594 L 1.003906 12.816406 C 1.003906 13.039062 1.082031 13.28125 1.207031 13.5 C 1.332031 13.71875 1.503906 13.90625 1.695312 14.015625 L 8.308594 17.835938 C 8.6875 18.054688 9.3125 18.054688 9.691406 17.835938 L 16.304688 14.015625 C 16.496094 13.90625 16.667969 13.71875 16.792969 13.5 C 16.917969 13.28125 16.996094 13.039062 16.996094 12.816406 L 16.996094 5.183594 C 16.996094 4.960938 16.921875 4.71875 16.792969 4.5 Z M 9 14.332031 C 6.058594 14.332031 3.667969 11.941406 3.667969 9 C 3.667969 6.058594 6.058594 3.667969 9 3.667969 C 10.902344 3.671875 12.660156 4.6875 13.617188 6.332031 L 11.308594 7.667969 C 10.832031 6.84375 9.953125 6.335938 9 6.332031 C 7.53125 6.332031 6.335938 7.53125 6.335938 9 C 6.335938 10.46875 7.53125 11.667969 9 11.667969 C 9.953125 11.664062 10.832031 11.15625 11.308594 10.332031 L 13.617188 11.667969 C 12.660156 13.3125 10.902344 14.328125 9 14.332031 Z M 14.332031 9.296875 L 13.738281 9.296875 L 13.738281 9.890625 L 13.148438 9.890625 L 13.148438 9.296875 L 12.554688 9.296875 L 12.554688 8.703125 L 13.148438 8.703125 L 13.148438 8.109375 L 13.738281 8.109375 L 13.738281 8.703125 L 14.332031 8.703125 Z M 16.554688 9.296875 L 15.960938 9.296875 L 15.960938 9.890625 L 15.367188 9.890625 L 15.367188 9.296875 L 14.777344 9.296875 L 14.777344 8.703125 L 15.367188 8.703125 L 15.367188 8.109375 L 15.960938 8.109375 L 15.960938 8.703125 L 16.554688 8.703125 Z M 16.554688 9.296875 "/>
</g>
</svg>
