<?xml version="1.0" encoding="UTF-8"?>
<svg xmlns="http://www.w3.org/2000/svg" xmlns:xlink="http://www.w3.org/1999/xlink" width="18pt" height="18pt" viewBox="0 0 18 18" version="1.1">
<defs>
<clipPath id="clip1">
  <path d="M 8 3 L 11 3 L 11 4 L 8 4 Z M 8 3 "/>
</clipPath>
<clipPath id="clip2">
  <path d="M 5.363281 3.308594 L 5.363281 6.554688 L 3.8125 6.554688 L 3.8125 8.175781 L 2.511719 8.175781 L 2.496094 8.320312 C 2.414062 9.203125 2.570312 10.019531 2.925781 10.714844 L 3.042969 10.929688 C 3.113281 11.058594 3.199219 11.179688 3.285156 11.296875 C 3.375 11.414062 3.40625 11.476562 3.460938 11.554688 C 4.398438 12.609375 5.796875 13.117188 7.410156 13.117188 C 10.984375 13.117188 14.019531 11.535156 15.359375 7.976562 C 16.3125 8.074219 17.226562 7.832031 17.644531 7.019531 C 16.980469 6.636719 16.128906 6.757812 15.636719 7.003906 L 16.9375 3.308594 L 11.855469 6.554688 L 10.234375 6.554688 L 10.234375 3.308594 Z M 5.363281 3.308594 "/>
</clipPath>
<clipPath id="clip3">
  <path d="M 8 3 L 11 3 L 11 5 L 8 5 Z M 8 3 "/>
</clipPath>
<clipPath id="clip4">
  <path d="M 5.363281 3.308594 L 5.363281 6.554688 L 3.8125 6.554688 L 3.8125 8.175781 L 2.511719 8.175781 L 2.496094 8.320312 C 2.414062 9.203125 2.570312 10.019531 2.925781 10.714844 L 3.042969 10.929688 C 3.113281 11.058594 3.199219 11.179688 3.285156 11.296875 C 3.375 11.414062 3.40625 11.476562 3.460938 11.554688 C 4.398438 12.609375 5.796875 13.117188 7.410156 13.117188 C 10.984375 13.117188 14.019531 11.535156 15.359375 7.976562 C 16.3125 8.074219 17.226562 7.832031 17.644531 7.019531 C 16.980469 6.636719 16.128906 6.757812 15.636719 7.003906 L 16.9375 3.308594 L 11.855469 6.554688 L 10.234375 6.554688 L 10.234375 3.308594 Z M 5.363281 3.308594 "/>
</clipPath>
<clipPath id="clip5">
  <path d="M 8 3 L 10 3 L 10 4 L 8 4 Z M 8 3 "/>
</clipPath>
<clipPath id="clip6">
  <path d="M 5.363281 3.308594 L 5.363281 6.554688 L 3.8125 6.554688 L 3.8125 8.175781 L 2.511719 8.175781 L 2.496094 8.320312 C 2.414062 9.203125 2.570312 10.019531 2.925781 10.714844 L 3.042969 10.929688 C 3.113281 11.058594 3.199219 11.179688 3.285156 11.296875 C 3.375 11.414062 3.40625 11.476562 3.460938 11.554688 C 4.398438 12.609375 5.796875 13.117188 7.410156 13.117188 C 10.984375 13.117188 14.019531 11.535156 15.359375 7.976562 C 16.3125 8.074219 17.226562 7.832031 17.644531 7.019531 C 16.980469 6.636719 16.128906 6.757812 15.636719 7.003906 L 16.9375 3.308594 L 11.855469 6.554688 L 10.234375 6.554688 L 10.234375 3.308594 Z M 5.363281 3.308594 "/>
</clipPath>
<clipPath id="clip7">
  <path d="M 8 3 L 11 3 L 11 4 L 8 4 Z M 8 3 "/>
</clipPath>
<clipPath id="clip8">
  <path d="M 5.363281 3.308594 L 5.363281 6.554688 L 3.8125 6.554688 L 3.8125 8.175781 L 2.511719 8.175781 L 2.496094 8.320312 C 2.414062 9.203125 2.570312 10.019531 2.925781 10.714844 L 3.042969 10.929688 C 3.113281 11.058594 3.199219 11.179688 3.285156 11.296875 C 3.375 11.414062 3.40625 11.476562 3.460938 11.554688 C 4.398438 12.609375 5.796875 13.117188 7.410156 13.117188 C 10.984375 13.117188 14.019531 11.535156 15.359375 7.976562 C 16.3125 8.074219 17.226562 7.832031 17.644531 7.019531 C 16.980469 6.636719 16.128906 6.757812 15.636719 7.003906 L 16.9375 3.308594 L 11.855469 6.554688 L 10.234375 6.554688 L 10.234375 3.308594 Z M 5.363281 3.308594 "/>
</clipPath>
<clipPath id="clip9">
  <path d="M 8 3 L 10 3 L 10 5 L 8 5 Z M 8 3 "/>
</clipPath>
<clipPath id="clip10">
  <path d="M 5.363281 3.308594 L 5.363281 6.554688 L 3.8125 6.554688 L 3.8125 8.175781 L 2.511719 8.175781 L 2.496094 8.320312 C 2.414062 9.203125 2.570312 10.019531 2.925781 10.714844 L 3.042969 10.929688 C 3.113281 11.058594 3.199219 11.179688 3.285156 11.296875 C 3.375 11.414062 3.40625 11.476562 3.460938 11.554688 C 4.398438 12.609375 5.796875 13.117188 7.410156 13.117188 C 10.984375 13.117188 14.019531 11.535156 15.359375 7.976562 C 16.3125 8.074219 17.226562 7.832031 17.644531 7.019531 C 16.980469 6.636719 16.128906 6.757812 15.636719 7.003906 L 16.9375 3.308594 L 11.855469 6.554688 L 10.234375 6.554688 L 10.234375 3.308594 Z M 5.363281 3.308594 "/>
</clipPath>
<clipPath id="clip11">
  <path d="M 8 3 L 11 3 L 11 5 L 8 5 Z M 8 3 "/>
</clipPath>
<clipPath id="clip12">
  <path d="M 5.363281 3.308594 L 5.363281 6.554688 L 3.8125 6.554688 L 3.8125 8.175781 L 2.511719 8.175781 L 2.496094 8.320312 C 2.414062 9.203125 2.570312 10.019531 2.925781 10.714844 L 3.042969 10.929688 C 3.113281 11.058594 3.199219 11.179688 3.285156 11.296875 C 3.375 11.414062 3.40625 11.476562 3.460938 11.554688 C 4.398438 12.609375 5.796875 13.117188 7.410156 13.117188 C 10.984375 13.117188 14.019531 11.535156 15.359375 7.976562 C 16.3125 8.074219 17.226562 7.832031 17.644531 7.019531 C 16.980469 6.636719 16.128906 6.757812 15.636719 7.003906 L 16.9375 3.308594 L 11.855469 6.554688 L 10.234375 6.554688 L 10.234375 3.308594 Z M 5.363281 3.308594 "/>
</clipPath>
<clipPath id="clip13">
  <path d="M 10 3 L 12 3 L 12 5 L 10 5 Z M 10 3 "/>
</clipPath>
<clipPath id="clip14">
  <path d="M 5.363281 3.308594 L 5.363281 6.554688 L 3.8125 6.554688 L 3.8125 8.175781 L 2.511719 8.175781 L 2.496094 8.320312 C 2.414062 9.203125 2.570312 10.019531 2.925781 10.714844 L 3.042969 10.929688 C 3.113281 11.058594 3.199219 11.179688 3.285156 11.296875 C 3.375 11.414062 3.40625 11.476562 3.460938 11.554688 C 4.398438 12.609375 5.796875 13.117188 7.410156 13.117188 C 10.984375 13.117188 14.019531 11.535156 15.359375 7.976562 C 16.3125 8.074219 17.226562 7.832031 17.644531 7.019531 C 16.980469 6.636719 16.128906 6.757812 15.636719 7.003906 L 16.9375 3.308594 L 11.855469 6.554688 L 10.234375 6.554688 L 10.234375 3.308594 Z M 5.363281 3.308594 "/>
</clipPath>
<clipPath id="clip15">
  <path d="M 10 3 L 12 3 L 12 4 L 10 4 Z M 10 3 "/>
</clipPath>
<clipPath id="clip16">
  <path d="M 5.363281 3.308594 L 5.363281 6.554688 L 3.8125 6.554688 L 3.8125 8.175781 L 2.511719 8.175781 L 2.496094 8.320312 C 2.414062 9.203125 2.570312 10.019531 2.925781 10.714844 L 3.042969 10.929688 C 3.113281 11.058594 3.199219 11.179688 3.285156 11.296875 C 3.375 11.414062 3.40625 11.476562 3.460938 11.554688 C 4.398438 12.609375 5.796875 13.117188 7.410156 13.117188 C 10.984375 13.117188 14.019531 11.535156 15.359375 7.976562 C 16.3125 8.074219 17.226562 7.832031 17.644531 7.019531 C 16.980469 6.636719 16.128906 6.757812 15.636719 7.003906 L 16.9375 3.308594 L 11.855469 6.554688 L 10.234375 6.554688 L 10.234375 3.308594 Z M 5.363281 3.308594 "/>
</clipPath>
<clipPath id="clip17">
  <path d="M 10 3 L 12 3 L 12 5 L 10 5 Z M 10 3 "/>
</clipPath>
<clipPath id="clip18">
  <path d="M 5.363281 3.308594 L 5.363281 6.554688 L 3.8125 6.554688 L 3.8125 8.175781 L 2.511719 8.175781 L 2.496094 8.320312 C 2.414062 9.203125 2.570312 10.019531 2.925781 10.714844 L 3.042969 10.929688 C 3.113281 11.058594 3.199219 11.179688 3.285156 11.296875 C 3.375 11.414062 3.40625 11.476562 3.460938 11.554688 C 4.398438 12.609375 5.796875 13.117188 7.410156 13.117188 C 10.984375 13.117188 14.019531 11.535156 15.359375 7.976562 C 16.3125 8.074219 17.226562 7.832031 17.644531 7.019531 C 16.980469 6.636719 16.128906 6.757812 15.636719 7.003906 L 16.9375 3.308594 L 11.855469 6.554688 L 10.234375 6.554688 L 10.234375 3.308594 Z M 5.363281 3.308594 "/>
</clipPath>
<clipPath id="clip19">
  <path d="M 10 3 L 12 3 L 12 4 L 10 4 Z M 10 3 "/>
</clipPath>
<clipPath id="clip20">
  <path d="M 5.363281 3.308594 L 5.363281 6.554688 L 3.8125 6.554688 L 3.8125 8.175781 L 2.511719 8.175781 L 2.496094 8.320312 C 2.414062 9.203125 2.570312 10.019531 2.925781 10.714844 L 3.042969 10.929688 C 3.113281 11.058594 3.199219 11.179688 3.285156 11.296875 C 3.375 11.414062 3.40625 11.476562 3.460938 11.554688 C 4.398438 12.609375 5.796875 13.117188 7.410156 13.117188 C 10.984375 13.117188 14.019531 11.535156 15.359375 7.976562 C 16.3125 8.074219 17.226562 7.832031 17.644531 7.019531 C 16.980469 6.636719 16.128906 6.757812 15.636719 7.003906 L 16.9375 3.308594 L 11.855469 6.554688 L 10.234375 6.554688 L 10.234375 3.308594 Z M 5.363281 3.308594 "/>
</clipPath>
<clipPath id="clip21">
  <path d="M 2 5 L 4 5 L 4 7 L 2 7 Z M 2 5 "/>
</clipPath>
<clipPath id="clip22">
  <path d="M 5.363281 3.308594 L 5.363281 6.554688 L 3.8125 6.554688 L 3.8125 8.175781 L 2.511719 8.175781 L 2.496094 8.320312 C 2.414062 9.203125 2.570312 10.019531 2.925781 10.714844 L 3.042969 10.929688 C 3.113281 11.058594 3.199219 11.179688 3.285156 11.296875 C 3.375 11.414062 3.40625 11.476562 3.460938 11.554688 C 4.398438 12.609375 5.796875 13.117188 7.410156 13.117188 C 10.984375 13.117188 14.019531 11.535156 15.359375 7.976562 C 16.3125 8.074219 17.226562 7.832031 17.644531 7.019531 C 16.980469 6.636719 16.128906 6.757812 15.636719 7.003906 L 16.9375 3.308594 L 11.855469 6.554688 L 10.234375 6.554688 L 10.234375 3.308594 Z M 5.363281 3.308594 "/>
</clipPath>
<clipPath id="clip23">
  <path d="M 2 6 L 4 6 L 4 9 L 2 9 Z M 2 6 "/>
</clipPath>
<clipPath id="clip24">
  <path d="M 5.363281 3.308594 L 5.363281 6.554688 L 3.8125 6.554688 L 3.8125 8.175781 L 2.511719 8.175781 L 2.496094 8.320312 C 2.414062 9.203125 2.570312 10.019531 2.925781 10.714844 L 3.042969 10.929688 C 3.113281 11.058594 3.199219 11.179688 3.285156 11.296875 C 3.375 11.414062 3.40625 11.476562 3.460938 11.554688 C 4.398438 12.609375 5.796875 13.117188 7.410156 13.117188 C 10.984375 13.117188 14.019531 11.535156 15.359375 7.976562 C 16.3125 8.074219 17.226562 7.832031 17.644531 7.019531 C 16.980469 6.636719 16.128906 6.757812 15.636719 7.003906 L 16.9375 3.308594 L 11.855469 6.554688 L 10.234375 6.554688 L 10.234375 3.308594 Z M 5.363281 3.308594 "/>
</clipPath>
<clipPath id="clip25">
  <path d="M 2 5 L 4 5 L 4 7 L 2 7 Z M 2 5 "/>
</clipPath>
<clipPath id="clip26">
  <path d="M 5.363281 3.308594 L 5.363281 6.554688 L 3.8125 6.554688 L 3.8125 8.175781 L 2.511719 8.175781 L 2.496094 8.320312 C 2.414062 9.203125 2.570312 10.019531 2.925781 10.714844 L 3.042969 10.929688 C 3.113281 11.058594 3.199219 11.179688 3.285156 11.296875 C 3.375 11.414062 3.40625 11.476562 3.460938 11.554688 C 4.398438 12.609375 5.796875 13.117188 7.410156 13.117188 C 10.984375 13.117188 14.019531 11.535156 15.359375 7.976562 C 16.3125 8.074219 17.226562 7.832031 17.644531 7.019531 C 16.980469 6.636719 16.128906 6.757812 15.636719 7.003906 L 16.9375 3.308594 L 11.855469 6.554688 L 10.234375 6.554688 L 10.234375 3.308594 Z M 5.363281 3.308594 "/>
</clipPath>
<clipPath id="clip27">
  <path d="M 2 6 L 4 6 L 4 8 L 2 8 Z M 2 6 "/>
</clipPath>
<clipPath id="clip28">
  <path d="M 5.363281 3.308594 L 5.363281 6.554688 L 3.8125 6.554688 L 3.8125 8.175781 L 2.511719 8.175781 L 2.496094 8.320312 C 2.414062 9.203125 2.570312 10.019531 2.925781 10.714844 L 3.042969 10.929688 C 3.113281 11.058594 3.199219 11.179688 3.285156 11.296875 C 3.375 11.414062 3.40625 11.476562 3.460938 11.554688 C 4.398438 12.609375 5.796875 13.117188 7.410156 13.117188 C 10.984375 13.117188 14.019531 11.535156 15.359375 7.976562 C 16.3125 8.074219 17.226562 7.832031 17.644531 7.019531 C 16.980469 6.636719 16.128906 6.757812 15.636719 7.003906 L 16.9375 3.308594 L 11.855469 6.554688 L 10.234375 6.554688 L 10.234375 3.308594 Z M 5.363281 3.308594 "/>
</clipPath>
<clipPath id="clip29">
  <path d="M 3 6 L 6 6 L 6 9 L 3 9 Z M 3 6 "/>
</clipPath>
<clipPath id="clip30">
  <path d="M 5.363281 3.308594 L 5.363281 6.554688 L 3.8125 6.554688 L 3.8125 8.175781 L 2.511719 8.175781 L 2.496094 8.320312 C 2.414062 9.203125 2.570312 10.019531 2.925781 10.714844 L 3.042969 10.929688 C 3.113281 11.058594 3.199219 11.179688 3.285156 11.296875 C 3.375 11.414062 3.40625 11.476562 3.460938 11.554688 C 4.398438 12.609375 5.796875 13.117188 7.410156 13.117188 C 10.984375 13.117188 14.019531 11.535156 15.359375 7.976562 C 16.3125 8.074219 17.226562 7.832031 17.644531 7.019531 C 16.980469 6.636719 16.128906 6.757812 15.636719 7.003906 L 16.9375 3.308594 L 11.855469 6.554688 L 10.234375 6.554688 L 10.234375 3.308594 Z M 5.363281 3.308594 "/>
</clipPath>
<clipPath id="clip31">
  <path d="M 3 5 L 6 5 L 6 7 L 3 7 Z M 3 5 "/>
</clipPath>
<clipPath id="clip32">
  <path d="M 5.363281 3.308594 L 5.363281 6.554688 L 3.8125 6.554688 L 3.8125 8.175781 L 2.511719 8.175781 L 2.496094 8.320312 C 2.414062 9.203125 2.570312 10.019531 2.925781 10.714844 L 3.042969 10.929688 C 3.113281 11.058594 3.199219 11.179688 3.285156 11.296875 C 3.375 11.414062 3.40625 11.476562 3.460938 11.554688 C 4.398438 12.609375 5.796875 13.117188 7.410156 13.117188 C 10.984375 13.117188 14.019531 11.535156 15.359375 7.976562 C 16.3125 8.074219 17.226562 7.832031 17.644531 7.019531 C 16.980469 6.636719 16.128906 6.757812 15.636719 7.003906 L 16.9375 3.308594 L 11.855469 6.554688 L 10.234375 6.554688 L 10.234375 3.308594 Z M 5.363281 3.308594 "/>
</clipPath>
<clipPath id="clip33">
  <path d="M 4 6 L 6 6 L 6 8 L 4 8 Z M 4 6 "/>
</clipPath>
<clipPath id="clip34">
  <path d="M 5.363281 3.308594 L 5.363281 6.554688 L 3.8125 6.554688 L 3.8125 8.175781 L 2.511719 8.175781 L 2.496094 8.320312 C 2.414062 9.203125 2.570312 10.019531 2.925781 10.714844 L 3.042969 10.929688 C 3.113281 11.058594 3.199219 11.179688 3.285156 11.296875 C 3.375 11.414062 3.40625 11.476562 3.460938 11.554688 C 4.398438 12.609375 5.796875 13.117188 7.410156 13.117188 C 10.984375 13.117188 14.019531 11.535156 15.359375 7.976562 C 16.3125 8.074219 17.226562 7.832031 17.644531 7.019531 C 16.980469 6.636719 16.128906 6.757812 15.636719 7.003906 L 16.9375 3.308594 L 11.855469 6.554688 L 10.234375 6.554688 L 10.234375 3.308594 Z M 5.363281 3.308594 "/>
</clipPath>
<clipPath id="clip35">
  <path d="M 4 5 L 6 5 L 6 7 L 4 7 Z M 4 5 "/>
</clipPath>
<clipPath id="clip36">
  <path d="M 5.363281 3.308594 L 5.363281 6.554688 L 3.8125 6.554688 L 3.8125 8.175781 L 2.511719 8.175781 L 2.496094 8.320312 C 2.414062 9.203125 2.570312 10.019531 2.925781 10.714844 L 3.042969 10.929688 C 3.113281 11.058594 3.199219 11.179688 3.285156 11.296875 C 3.375 11.414062 3.40625 11.476562 3.460938 11.554688 C 4.398438 12.609375 5.796875 13.117188 7.410156 13.117188 C 10.984375 13.117188 14.019531 11.535156 15.359375 7.976562 C 16.3125 8.074219 17.226562 7.832031 17.644531 7.019531 C 16.980469 6.636719 16.128906 6.757812 15.636719 7.003906 L 16.9375 3.308594 L 11.855469 6.554688 L 10.234375 6.554688 L 10.234375 3.308594 Z M 5.363281 3.308594 "/>
</clipPath>
<clipPath id="clip37">
  <path d="M 5 5 L 7 5 L 7 7 L 5 7 Z M 5 5 "/>
</clipPath>
<clipPath id="clip38">
  <path d="M 5.363281 3.308594 L 5.363281 6.554688 L 3.8125 6.554688 L 3.8125 8.175781 L 2.511719 8.175781 L 2.496094 8.320312 C 2.414062 9.203125 2.570312 10.019531 2.925781 10.714844 L 3.042969 10.929688 C 3.113281 11.058594 3.199219 11.179688 3.285156 11.296875 C 3.375 11.414062 3.40625 11.476562 3.460938 11.554688 C 4.398438 12.609375 5.796875 13.117188 7.410156 13.117188 C 10.984375 13.117188 14.019531 11.535156 15.359375 7.976562 C 16.3125 8.074219 17.226562 7.832031 17.644531 7.019531 C 16.980469 6.636719 16.128906 6.757812 15.636719 7.003906 L 16.9375 3.308594 L 11.855469 6.554688 L 10.234375 6.554688 L 10.234375 3.308594 Z M 5.363281 3.308594 "/>
</clipPath>
<clipPath id="clip39">
  <path d="M 5 6 L 7 6 L 7 9 L 5 9 Z M 5 6 "/>
</clipPath>
<clipPath id="clip40">
  <path d="M 5.363281 3.308594 L 5.363281 6.554688 L 3.8125 6.554688 L 3.8125 8.175781 L 2.511719 8.175781 L 2.496094 8.320312 C 2.414062 9.203125 2.570312 10.019531 2.925781 10.714844 L 3.042969 10.929688 C 3.113281 11.058594 3.199219 11.179688 3.285156 11.296875 C 3.375 11.414062 3.40625 11.476562 3.460938 11.554688 C 4.398438 12.609375 5.796875 13.117188 7.410156 13.117188 C 10.984375 13.117188 14.019531 11.535156 15.359375 7.976562 C 16.3125 8.074219 17.226562 7.832031 17.644531 7.019531 C 16.980469 6.636719 16.128906 6.757812 15.636719 7.003906 L 16.9375 3.308594 L 11.855469 6.554688 L 10.234375 6.554688 L 10.234375 3.308594 Z M 5.363281 3.308594 "/>
</clipPath>
<clipPath id="clip41">
  <path d="M 5 5 L 7 5 L 7 7 L 5 7 Z M 5 5 "/>
</clipPath>
<clipPath id="clip42">
  <path d="M 5.363281 3.308594 L 5.363281 6.554688 L 3.8125 6.554688 L 3.8125 8.175781 L 2.511719 8.175781 L 2.496094 8.320312 C 2.414062 9.203125 2.570312 10.019531 2.925781 10.714844 L 3.042969 10.929688 C 3.113281 11.058594 3.199219 11.179688 3.285156 11.296875 C 3.375 11.414062 3.40625 11.476562 3.460938 11.554688 C 4.398438 12.609375 5.796875 13.117188 7.410156 13.117188 C 10.984375 13.117188 14.019531 11.535156 15.359375 7.976562 C 16.3125 8.074219 17.226562 7.832031 17.644531 7.019531 C 16.980469 6.636719 16.128906 6.757812 15.636719 7.003906 L 16.9375 3.308594 L 11.855469 6.554688 L 10.234375 6.554688 L 10.234375 3.308594 Z M 5.363281 3.308594 "/>
</clipPath>
<clipPath id="clip43">
  <path d="M 5 6 L 7 6 L 7 8 L 5 8 Z M 5 6 "/>
</clipPath>
<clipPath id="clip44">
  <path d="M 5.363281 3.308594 L 5.363281 6.554688 L 3.8125 6.554688 L 3.8125 8.175781 L 2.511719 8.175781 L 2.496094 8.320312 C 2.414062 9.203125 2.570312 10.019531 2.925781 10.714844 L 3.042969 10.929688 C 3.113281 11.058594 3.199219 11.179688 3.285156 11.296875 C 3.375 11.414062 3.40625 11.476562 3.460938 11.554688 C 4.398438 12.609375 5.796875 13.117188 7.410156 13.117188 C 10.984375 13.117188 14.019531 11.535156 15.359375 7.976562 C 16.3125 8.074219 17.226562 7.832031 17.644531 7.019531 C 16.980469 6.636719 16.128906 6.757812 15.636719 7.003906 L 16.9375 3.308594 L 11.855469 6.554688 L 10.234375 6.554688 L 10.234375 3.308594 Z M 5.363281 3.308594 "/>
</clipPath>
<clipPath id="clip45">
  <path d="M 7 6 L 9 6 L 9 9 L 7 9 Z M 7 6 "/>
</clipPath>
<clipPath id="clip46">
  <path d="M 5.363281 3.308594 L 5.363281 6.554688 L 3.8125 6.554688 L 3.8125 8.175781 L 2.511719 8.175781 L 2.496094 8.320312 C 2.414062 9.203125 2.570312 10.019531 2.925781 10.714844 L 3.042969 10.929688 C 3.113281 11.058594 3.199219 11.179688 3.285156 11.296875 C 3.375 11.414062 3.40625 11.476562 3.460938 11.554688 C 4.398438 12.609375 5.796875 13.117188 7.410156 13.117188 C 10.984375 13.117188 14.019531 11.535156 15.359375 7.976562 C 16.3125 8.074219 17.226562 7.832031 17.644531 7.019531 C 16.980469 6.636719 16.128906 6.757812 15.636719 7.003906 L 16.9375 3.308594 L 11.855469 6.554688 L 10.234375 6.554688 L 10.234375 3.308594 Z M 5.363281 3.308594 "/>
</clipPath>
<clipPath id="clip47">
  <path d="M 7 5 L 9 5 L 9 7 L 7 7 Z M 7 5 "/>
</clipPath>
<clipPath id="clip48">
  <path d="M 5.363281 3.308594 L 5.363281 6.554688 L 3.8125 6.554688 L 3.8125 8.175781 L 2.511719 8.175781 L 2.496094 8.320312 C 2.414062 9.203125 2.570312 10.019531 2.925781 10.714844 L 3.042969 10.929688 C 3.113281 11.058594 3.199219 11.179688 3.285156 11.296875 C 3.375 11.414062 3.40625 11.476562 3.460938 11.554688 C 4.398438 12.609375 5.796875 13.117188 7.410156 13.117188 C 10.984375 13.117188 14.019531 11.535156 15.359375 7.976562 C 16.3125 8.074219 17.226562 7.832031 17.644531 7.019531 C 16.980469 6.636719 16.128906 6.757812 15.636719 7.003906 L 16.9375 3.308594 L 11.855469 6.554688 L 10.234375 6.554688 L 10.234375 3.308594 Z M 5.363281 3.308594 "/>
</clipPath>
<clipPath id="clip49">
  <path d="M 7 6 L 9 6 L 9 8 L 7 8 Z M 7 6 "/>
</clipPath>
<clipPath id="clip50">
  <path d="M 5.363281 3.308594 L 5.363281 6.554688 L 3.8125 6.554688 L 3.8125 8.175781 L 2.511719 8.175781 L 2.496094 8.320312 C 2.414062 9.203125 2.570312 10.019531 2.925781 10.714844 L 3.042969 10.929688 C 3.113281 11.058594 3.199219 11.179688 3.285156 11.296875 C 3.375 11.414062 3.40625 11.476562 3.460938 11.554688 C 4.398438 12.609375 5.796875 13.117188 7.410156 13.117188 C 10.984375 13.117188 14.019531 11.535156 15.359375 7.976562 C 16.3125 8.074219 17.226562 7.832031 17.644531 7.019531 C 16.980469 6.636719 16.128906 6.757812 15.636719 7.003906 L 16.9375 3.308594 L 11.855469 6.554688 L 10.234375 6.554688 L 10.234375 3.308594 Z M 5.363281 3.308594 "/>
</clipPath>
<clipPath id="clip51">
  <path d="M 7 5 L 9 5 L 9 7 L 7 7 Z M 7 5 "/>
</clipPath>
<clipPath id="clip52">
  <path d="M 5.363281 3.308594 L 5.363281 6.554688 L 3.8125 6.554688 L 3.8125 8.175781 L 2.511719 8.175781 L 2.496094 8.320312 C 2.414062 9.203125 2.570312 10.019531 2.925781 10.714844 L 3.042969 10.929688 C 3.113281 11.058594 3.199219 11.179688 3.285156 11.296875 C 3.375 11.414062 3.40625 11.476562 3.460938 11.554688 C 4.398438 12.609375 5.796875 13.117188 7.410156 13.117188 C 10.984375 13.117188 14.019531 11.535156 15.359375 7.976562 C 16.3125 8.074219 17.226562 7.832031 17.644531 7.019531 C 16.980469 6.636719 16.128906 6.757812 15.636719 7.003906 L 16.9375 3.308594 L 11.855469 6.554688 L 10.234375 6.554688 L 10.234375 3.308594 Z M 5.363281 3.308594 "/>
</clipPath>
<clipPath id="clip53">
  <path d="M 8 5 L 11 5 L 11 7 L 8 7 Z M 8 5 "/>
</clipPath>
<clipPath id="clip54">
  <path d="M 5.363281 3.308594 L 5.363281 6.554688 L 3.8125 6.554688 L 3.8125 8.175781 L 2.511719 8.175781 L 2.496094 8.320312 C 2.414062 9.203125 2.570312 10.019531 2.925781 10.714844 L 3.042969 10.929688 C 3.113281 11.058594 3.199219 11.179688 3.285156 11.296875 C 3.375 11.414062 3.40625 11.476562 3.460938 11.554688 C 4.398438 12.609375 5.796875 13.117188 7.410156 13.117188 C 10.984375 13.117188 14.019531 11.535156 15.359375 7.976562 C 16.3125 8.074219 17.226562 7.832031 17.644531 7.019531 C 16.980469 6.636719 16.128906 6.757812 15.636719 7.003906 L 16.9375 3.308594 L 11.855469 6.554688 L 10.234375 6.554688 L 10.234375 3.308594 Z M 5.363281 3.308594 "/>
</clipPath>
<clipPath id="clip55">
  <path d="M 8 6 L 11 6 L 11 9 L 8 9 Z M 8 6 "/>
</clipPath>
<clipPath id="clip56">
  <path d="M 5.363281 3.308594 L 5.363281 6.554688 L 3.8125 6.554688 L 3.8125 8.175781 L 2.511719 8.175781 L 2.496094 8.320312 C 2.414062 9.203125 2.570312 10.019531 2.925781 10.714844 L 3.042969 10.929688 C 3.113281 11.058594 3.199219 11.179688 3.285156 11.296875 C 3.375 11.414062 3.40625 11.476562 3.460938 11.554688 C 4.398438 12.609375 5.796875 13.117188 7.410156 13.117188 C 10.984375 13.117188 14.019531 11.535156 15.359375 7.976562 C 16.3125 8.074219 17.226562 7.832031 17.644531 7.019531 C 16.980469 6.636719 16.128906 6.757812 15.636719 7.003906 L 16.9375 3.308594 L 11.855469 6.554688 L 10.234375 6.554688 L 10.234375 3.308594 Z M 5.363281 3.308594 "/>
</clipPath>
<clipPath id="clip57">
  <path d="M 8 5 L 10 5 L 10 7 L 8 7 Z M 8 5 "/>
</clipPath>
<clipPath id="clip58">
  <path d="M 5.363281 3.308594 L 5.363281 6.554688 L 3.8125 6.554688 L 3.8125 8.175781 L 2.511719 8.175781 L 2.496094 8.320312 C 2.414062 9.203125 2.570312 10.019531 2.925781 10.714844 L 3.042969 10.929688 C 3.113281 11.058594 3.199219 11.179688 3.285156 11.296875 C 3.375 11.414062 3.40625 11.476562 3.460938 11.554688 C 4.398438 12.609375 5.796875 13.117188 7.410156 13.117188 C 10.984375 13.117188 14.019531 11.535156 15.359375 7.976562 C 16.3125 8.074219 17.226562 7.832031 17.644531 7.019531 C 16.980469 6.636719 16.128906 6.757812 15.636719 7.003906 L 16.9375 3.308594 L 11.855469 6.554688 L 10.234375 6.554688 L 10.234375 3.308594 Z M 5.363281 3.308594 "/>
</clipPath>
<clipPath id="clip59">
  <path d="M 8 5 L 11 5 L 11 7 L 8 7 Z M 8 5 "/>
</clipPath>
<clipPath id="clip60">
  <path d="M 5.363281 3.308594 L 5.363281 6.554688 L 3.8125 6.554688 L 3.8125 8.175781 L 2.511719 8.175781 L 2.496094 8.320312 C 2.414062 9.203125 2.570312 10.019531 2.925781 10.714844 L 3.042969 10.929688 C 3.113281 11.058594 3.199219 11.179688 3.285156 11.296875 C 3.375 11.414062 3.40625 11.476562 3.460938 11.554688 C 4.398438 12.609375 5.796875 13.117188 7.410156 13.117188 C 10.984375 13.117188 14.019531 11.535156 15.359375 7.976562 C 16.3125 8.074219 17.226562 7.832031 17.644531 7.019531 C 16.980469 6.636719 16.128906 6.757812 15.636719 7.003906 L 16.9375 3.308594 L 11.855469 6.554688 L 10.234375 6.554688 L 10.234375 3.308594 Z M 5.363281 3.308594 "/>
</clipPath>
<clipPath id="clip61">
  <path d="M 8 6 L 10 6 L 10 8 L 8 8 Z M 8 6 "/>
</clipPath>
<clipPath id="clip62">
  <path d="M 5.363281 3.308594 L 5.363281 6.554688 L 3.8125 6.554688 L 3.8125 8.175781 L 2.511719 8.175781 L 2.496094 8.320312 C 2.414062 9.203125 2.570312 10.019531 2.925781 10.714844 L 3.042969 10.929688 C 3.113281 11.058594 3.199219 11.179688 3.285156 11.296875 C 3.375 11.414062 3.40625 11.476562 3.460938 11.554688 C 4.398438 12.609375 5.796875 13.117188 7.410156 13.117188 C 10.984375 13.117188 14.019531 11.535156 15.359375 7.976562 C 16.3125 8.074219 17.226562 7.832031 17.644531 7.019531 C 16.980469 6.636719 16.128906 6.757812 15.636719 7.003906 L 16.9375 3.308594 L 11.855469 6.554688 L 10.234375 6.554688 L 10.234375 3.308594 Z M 5.363281 3.308594 "/>
</clipPath>
<clipPath id="clip63">
  <path d="M 8 6 L 11 6 L 11 8 L 8 8 Z M 8 6 "/>
</clipPath>
<clipPath id="clip64">
  <path d="M 5.363281 3.308594 L 5.363281 6.554688 L 3.8125 6.554688 L 3.8125 8.175781 L 2.511719 8.175781 L 2.496094 8.320312 C 2.414062 9.203125 2.570312 10.019531 2.925781 10.714844 L 3.042969 10.929688 C 3.113281 11.058594 3.199219 11.179688 3.285156 11.296875 C 3.375 11.414062 3.40625 11.476562 3.460938 11.554688 C 4.398438 12.609375 5.796875 13.117188 7.410156 13.117188 C 10.984375 13.117188 14.019531 11.535156 15.359375 7.976562 C 16.3125 8.074219 17.226562 7.832031 17.644531 7.019531 C 16.980469 6.636719 16.128906 6.757812 15.636719 7.003906 L 16.9375 3.308594 L 11.855469 6.554688 L 10.234375 6.554688 L 10.234375 3.308594 Z M 5.363281 3.308594 "/>
</clipPath>
<clipPath id="clip65">
  <path d="M 10 6 L 12 6 L 12 9 L 10 9 Z M 10 6 "/>
</clipPath>
<clipPath id="clip66">
  <path d="M 5.363281 3.308594 L 5.363281 6.554688 L 3.8125 6.554688 L 3.8125 8.175781 L 2.511719 8.175781 L 2.496094 8.320312 C 2.414062 9.203125 2.570312 10.019531 2.925781 10.714844 L 3.042969 10.929688 C 3.113281 11.058594 3.199219 11.179688 3.285156 11.296875 C 3.375 11.414062 3.40625 11.476562 3.460938 11.554688 C 4.398438 12.609375 5.796875 13.117188 7.410156 13.117188 C 10.984375 13.117188 14.019531 11.535156 15.359375 7.976562 C 16.3125 8.074219 17.226562 7.832031 17.644531 7.019531 C 16.980469 6.636719 16.128906 6.757812 15.636719 7.003906 L 16.9375 3.308594 L 11.855469 6.554688 L 10.234375 6.554688 L 10.234375 3.308594 Z M 5.363281 3.308594 "/>
</clipPath>
<clipPath id="clip67">
  <path d="M 10 5 L 12 5 L 12 7 L 10 7 Z M 10 5 "/>
</clipPath>
<clipPath id="clip68">
  <path d="M 5.363281 3.308594 L 5.363281 6.554688 L 3.8125 6.554688 L 3.8125 8.175781 L 2.511719 8.175781 L 2.496094 8.320312 C 2.414062 9.203125 2.570312 10.019531 2.925781 10.714844 L 3.042969 10.929688 C 3.113281 11.058594 3.199219 11.179688 3.285156 11.296875 C 3.375 11.414062 3.40625 11.476562 3.460938 11.554688 C 4.398438 12.609375 5.796875 13.117188 7.410156 13.117188 C 10.984375 13.117188 14.019531 11.535156 15.359375 7.976562 C 16.3125 8.074219 17.226562 7.832031 17.644531 7.019531 C 16.980469 6.636719 16.128906 6.757812 15.636719 7.003906 L 16.9375 3.308594 L 11.855469 6.554688 L 10.234375 6.554688 L 10.234375 3.308594 Z M 5.363281 3.308594 "/>
</clipPath>
<clipPath id="clip69">
  <path d="M 10 6 L 12 6 L 12 8 L 10 8 Z M 10 6 "/>
</clipPath>
<clipPath id="clip70">
  <path d="M 5.363281 3.308594 L 5.363281 6.554688 L 3.8125 6.554688 L 3.8125 8.175781 L 2.511719 8.175781 L 2.496094 8.320312 C 2.414062 9.203125 2.570312 10.019531 2.925781 10.714844 L 3.042969 10.929688 C 3.113281 11.058594 3.199219 11.179688 3.285156 11.296875 C 3.375 11.414062 3.40625 11.476562 3.460938 11.554688 C 4.398438 12.609375 5.796875 13.117188 7.410156 13.117188 C 10.984375 13.117188 14.019531 11.535156 15.359375 7.976562 C 16.3125 8.074219 17.226562 7.832031 17.644531 7.019531 C 16.980469 6.636719 16.128906 6.757812 15.636719 7.003906 L 16.9375 3.308594 L 11.855469 6.554688 L 10.234375 6.554688 L 10.234375 3.308594 Z M 5.363281 3.308594 "/>
</clipPath>
<clipPath id="clip71">
  <path d="M 10 5 L 12 5 L 12 7 L 10 7 Z M 10 5 "/>
</clipPath>
<clipPath id="clip72">
  <path d="M 5.363281 3.308594 L 5.363281 6.554688 L 3.8125 6.554688 L 3.8125 8.175781 L 2.511719 8.175781 L 2.496094 8.320312 C 2.414062 9.203125 2.570312 10.019531 2.925781 10.714844 L 3.042969 10.929688 C 3.113281 11.058594 3.199219 11.179688 3.285156 11.296875 C 3.375 11.414062 3.40625 11.476562 3.460938 11.554688 C 4.398438 12.609375 5.796875 13.117188 7.410156 13.117188 C 10.984375 13.117188 14.019531 11.535156 15.359375 7.976562 C 16.3125 8.074219 17.226562 7.832031 17.644531 7.019531 C 16.980469 6.636719 16.128906 6.757812 15.636719 7.003906 L 16.9375 3.308594 L 11.855469 6.554688 L 10.234375 6.554688 L 10.234375 3.308594 Z M 5.363281 3.308594 "/>
</clipPath>
<clipPath id="clip73">
  <path d="M 2 5 L 18 5 L 18 14 L 2 14 Z M 2 5 "/>
</clipPath>
<clipPath id="clip74">
  <path d="M 5.363281 3.308594 L 5.363281 6.554688 L 3.8125 6.554688 L 3.8125 8.175781 L 2.511719 8.175781 L 2.496094 8.320312 C 2.414062 9.203125 2.570312 10.019531 2.925781 10.714844 L 3.042969 10.929688 C 3.113281 11.058594 3.199219 11.179688 3.285156 11.296875 C 3.375 11.414062 3.40625 11.476562 3.460938 11.554688 C 4.398438 12.609375 5.796875 13.117188 7.410156 13.117188 C 10.984375 13.117188 14.019531 11.535156 15.359375 7.976562 C 16.3125 8.074219 17.226562 7.832031 17.644531 7.019531 C 16.980469 6.636719 16.128906 6.757812 15.636719 7.003906 L 16.9375 3.308594 L 11.855469 6.554688 L 10.234375 6.554688 L 10.234375 3.308594 Z M 5.363281 3.308594 "/>
</clipPath>
<clipPath id="clip75">
  <path d="M 2 9 L 18 9 L 18 14 L 2 14 Z M 2 9 "/>
</clipPath>
<clipPath id="clip76">
  <path d="M 5.363281 3.308594 L 5.363281 6.554688 L 3.8125 6.554688 L 3.8125 8.175781 L 2.511719 8.175781 L 2.496094 8.320312 C 2.414062 9.203125 2.570312 10.019531 2.925781 10.714844 L 3.042969 10.929688 C 3.113281 11.058594 3.199219 11.179688 3.285156 11.296875 C 3.375 11.414062 3.40625 11.476562 3.460938 11.554688 C 4.398438 12.609375 5.796875 13.117188 7.410156 13.117188 C 10.984375 13.117188 14.019531 11.535156 15.359375 7.976562 C 16.3125 8.074219 17.226562 7.832031 17.644531 7.019531 C 16.980469 6.636719 16.128906 6.757812 15.636719 7.003906 L 16.9375 3.308594 L 11.855469 6.554688 L 10.234375 6.554688 L 10.234375 3.308594 Z M 5.363281 3.308594 "/>
</clipPath>
<clipPath id="clip77">
  <path d="M 3 11 L 8 11 L 8 14 L 3 14 Z M 3 11 "/>
</clipPath>
<clipPath id="clip78">
  <path d="M 5.363281 3.308594 L 5.363281 6.554688 L 3.8125 6.554688 L 3.8125 8.175781 L 2.511719 8.175781 L 2.496094 8.320312 C 2.414062 9.203125 2.570312 10.019531 2.925781 10.714844 L 3.042969 10.929688 C 3.113281 11.058594 3.199219 11.179688 3.285156 11.296875 C 3.375 11.414062 3.40625 11.476562 3.460938 11.554688 C 4.398438 12.609375 5.796875 13.117188 7.410156 13.117188 C 10.984375 13.117188 14.019531 11.535156 15.359375 7.976562 C 16.3125 8.074219 17.226562 7.832031 17.644531 7.019531 C 16.980469 6.636719 16.128906 6.757812 15.636719 7.003906 L 16.9375 3.308594 L 11.855469 6.554688 L 10.234375 6.554688 L 10.234375 3.308594 Z M 5.363281 3.308594 "/>
</clipPath>
<clipPath id="clip79">
  <path d="M 2 6 L 18 6 L 18 14 L 2 14 Z M 2 6 "/>
</clipPath>
<clipPath id="clip80">
  <path d="M 5.363281 3.308594 L 5.363281 6.554688 L 3.8125 6.554688 L 3.8125 8.175781 L 2.511719 8.175781 L 2.496094 8.320312 C 2.414062 9.203125 2.570312 10.019531 2.925781 10.714844 L 3.042969 10.929688 C 3.113281 11.058594 3.199219 11.179688 3.285156 11.296875 C 3.375 11.414062 3.40625 11.476562 3.460938 11.554688 C 4.398438 12.609375 5.796875 13.117188 7.410156 13.117188 C 10.984375 13.117188 14.019531 11.535156 15.359375 7.976562 C 16.3125 8.074219 17.226562 7.832031 17.644531 7.019531 C 16.980469 6.636719 16.128906 6.757812 15.636719 7.003906 L 16.9375 3.308594 L 11.855469 6.554688 L 10.234375 6.554688 L 10.234375 3.308594 Z M 5.363281 3.308594 "/>
</clipPath>
</defs>
<g id="surface1">
<path style=" stroke:none;fill-rule:nonzero;fill:rgb(22.352941%,30.196078%,32.941176%);fill-opacity:1;" d="M 10.410156 6.394531 L 12.023438 6.394531 L 12.023438 8.042969 L 12.835938 8.042969 C 13.21875 8.042969 13.597656 7.980469 13.960938 7.855469 C 14.136719 7.796875 14.332031 7.714844 14.503906 7.609375 C 14.277344 7.3125 14.160156 6.9375 14.121094 6.566406 C 14.074219 6.0625 14.175781 5.40625 14.519531 5.011719 L 14.6875 4.816406 L 14.890625 4.980469 C 15.398438 5.390625 15.828125 5.960938 15.902344 6.613281 C 16.515625 6.429688 17.234375 6.472656 17.777344 6.785156 L 17.996094 6.914062 L 17.878906 7.140625 C 17.425781 8.03125 16.472656 8.308594 15.539062 8.261719 C 14.140625 11.738281 11.097656 13.386719 7.410156 13.386719 C 5.503906 13.386719 3.757812 12.675781 2.761719 10.984375 C 2.703125 10.878906 2.652344 10.769531 2.601562 10.660156 C 2.265625 9.917969 2.152344 9.101562 2.226562 8.292969 L 2.25 8.046875 L 3.628906 8.046875 L 3.628906 6.394531 L 5.242188 6.394531 L 5.242188 4.78125 L 8.46875 4.78125 L 8.46875 3.167969 L 10.40625 3.167969 L 10.40625 6.394531 "/>
<g clip-path="url(#clip1)" clip-rule="nonzero">
<g clip-path="url(#clip2)" clip-rule="nonzero">
<path style=" stroke:none;fill-rule:nonzero;fill:rgb(0%,67.45098%,82.745098%);fill-opacity:1;" d="M 8.742188 1.820312 L 10.140625 1.820312 L 10.140625 3.21875 L 8.742188 3.21875 Z M 8.742188 1.820312 "/>
</g>
</g>
<g clip-path="url(#clip3)" clip-rule="nonzero">
<g clip-path="url(#clip4)" clip-rule="nonzero">
<path style=" stroke:none;fill-rule:nonzero;fill:rgb(12.54902%,76.078431%,93.72549%);fill-opacity:1;" d="M 8.742188 3.4375 L 10.140625 3.4375 L 10.140625 4.835938 L 8.742188 4.835938 Z M 8.742188 3.4375 "/>
</g>
</g>
<g clip-path="url(#clip5)" clip-rule="nonzero">
<g clip-path="url(#clip6)" clip-rule="nonzero">
<path style=" stroke:none;fill-rule:nonzero;fill:rgb(0%,0%,0%);fill-opacity:1;" d="M 8.914062 3.105469 L 8.914062 1.9375 M 9.121094 3.105469 L 9.121094 1.9375 M 9.335938 3.105469 L 9.335938 1.9375 M 9.546875 3.105469 L 9.546875 1.9375 M 9.757812 3.105469 L 9.757812 1.9375 M 9.96875 3.105469 L 9.96875 1.9375 "/>
</g>
</g>
<g clip-path="url(#clip7)" clip-rule="nonzero">
<g clip-path="url(#clip8)" clip-rule="nonzero">
<path style="fill:none;stroke-width:1.56;stroke-linecap:butt;stroke-linejoin:miter;stroke:rgb(22.352941%,30.196078%,32.941176%);stroke-opacity:1;stroke-miterlimit:4;" d="M 126.311361 21.994347 L 126.311361 5.444348 M 129.244973 21.994347 L 129.244973 5.444348 M 132.289287 21.994347 L 132.289287 5.444348 M 135.27825 21.994347 L 135.27825 5.444348 M 138.267213 21.994347 L 138.267213 5.444348 M 141.256177 21.994347 L 141.256177 5.444348 " transform="matrix(0.0705721,0,0,0.0705721,0.000000167432,1.553281)"/>
</g>
</g>
<g clip-path="url(#clip9)" clip-rule="nonzero">
<g clip-path="url(#clip10)" clip-rule="nonzero">
<path style=" stroke:none;fill-rule:nonzero;fill:rgb(0%,0%,0%);fill-opacity:1;" d="M 8.914062 4.71875 L 8.914062 3.550781 M 9.121094 4.71875 L 9.121094 3.550781 M 9.335938 4.71875 L 9.335938 3.550781 M 9.546875 4.71875 L 9.546875 3.550781 M 9.757812 4.71875 L 9.757812 3.550781 M 9.96875 4.71875 L 9.96875 3.550781 "/>
</g>
</g>
<g clip-path="url(#clip11)" clip-rule="nonzero">
<g clip-path="url(#clip12)" clip-rule="nonzero">
<path style="fill:none;stroke-width:1.56;stroke-linecap:butt;stroke-linejoin:miter;stroke:rgb(22.352941%,30.196078%,32.941176%);stroke-opacity:1;stroke-miterlimit:4;" d="M 126.311361 21.988379 L 126.311361 5.43838 M 129.244973 21.988379 L 129.244973 5.43838 M 132.289287 21.988379 L 132.289287 5.43838 M 135.27825 21.988379 L 135.27825 5.43838 M 138.267213 21.988379 L 138.267213 5.43838 M 141.256177 21.988379 L 141.256177 5.43838 " transform="matrix(0.0705721,0,0,0.0705721,0.000000167432,3.166983)"/>
</g>
</g>
<g clip-path="url(#clip13)" clip-rule="nonzero">
<g clip-path="url(#clip14)" clip-rule="nonzero">
<path style=" stroke:none;fill-rule:nonzero;fill:rgb(0%,67.45098%,82.745098%);fill-opacity:1;" d="M 10.355469 4.835938 L 11.753906 4.835938 L 11.753906 3.4375 L 10.355469 3.4375 Z M 10.355469 4.835938 "/>
</g>
</g>
<g clip-path="url(#clip15)" clip-rule="nonzero">
<g clip-path="url(#clip16)" clip-rule="nonzero">
<path style=" stroke:none;fill-rule:nonzero;fill:rgb(12.54902%,76.078431%,93.72549%);fill-opacity:1;" d="M 10.355469 3.222656 L 11.753906 3.222656 L 11.753906 1.820312 L 10.355469 1.820312 Z M 10.355469 3.222656 "/>
</g>
</g>
<g clip-path="url(#clip17)" clip-rule="nonzero">
<g clip-path="url(#clip18)" clip-rule="nonzero">
<path style="fill-rule:nonzero;fill:rgb(0%,0%,0%);fill-opacity:1;stroke-width:1.56;stroke-linecap:butt;stroke-linejoin:miter;stroke:rgb(22.352941%,30.196078%,32.941176%);stroke-opacity:1;stroke-miterlimit:4;" d="M 126.305393 22.000271 L 126.305393 5.450272 M 129.239005 22.000271 L 129.239005 5.450272 M 132.283319 22.000271 L 132.283319 5.450272 M 135.272283 22.000271 L 135.272283 5.450272 M 138.261246 22.000271 L 138.261246 5.450272 M 141.250209 22.000271 L 141.250209 5.450272 " transform="matrix(0.0705721,0,0,-0.0705721,1.613703,5.103387)"/>
</g>
</g>
<g clip-path="url(#clip19)" clip-rule="nonzero">
<g clip-path="url(#clip20)" clip-rule="nonzero">
<path style="fill-rule:nonzero;fill:rgb(0%,0%,0%);fill-opacity:1;stroke-width:1.56;stroke-linecap:butt;stroke-linejoin:miter;stroke:rgb(22.352941%,30.196078%,32.941176%);stroke-opacity:1;stroke-miterlimit:4;" d="M 126.305393 21.994303 L 126.305393 5.444304 M 129.239005 21.994303 L 129.239005 5.444304 M 132.283319 21.994303 L 132.283319 5.444304 M 135.272283 21.994303 L 135.272283 5.444304 M 138.261246 21.994303 L 138.261246 5.444304 M 141.250209 21.994303 L 141.250209 5.444304 " transform="matrix(0.0705721,0,0,-0.0705721,1.613703,3.489685)"/>
</g>
</g>
<g clip-path="url(#clip21)" clip-rule="nonzero">
<g clip-path="url(#clip22)" clip-rule="nonzero">
<path style=" stroke:none;fill-rule:nonzero;fill:rgb(0%,67.45098%,82.745098%);fill-opacity:1;" d="M 2.285156 5.050781 L 3.683594 5.050781 L 3.683594 6.449219 L 2.285156 6.449219 Z M 2.285156 5.050781 "/>
</g>
</g>
<g clip-path="url(#clip23)" clip-rule="nonzero">
<g clip-path="url(#clip24)" clip-rule="nonzero">
<path style=" stroke:none;fill-rule:nonzero;fill:rgb(12.54902%,76.078431%,93.72549%);fill-opacity:1;" d="M 2.285156 6.664062 L 3.683594 6.664062 L 3.683594 8.0625 L 2.285156 8.0625 Z M 2.285156 6.664062 "/>
</g>
</g>
<g clip-path="url(#clip25)" clip-rule="nonzero">
<g clip-path="url(#clip26)" clip-rule="nonzero">
<path style="fill-rule:nonzero;fill:rgb(0%,0%,0%);fill-opacity:1;stroke-width:1.56;stroke-linecap:butt;stroke-linejoin:miter;stroke:rgb(22.352941%,30.196078%,32.941176%);stroke-opacity:1;stroke-miterlimit:4;" d="M 126.279882 21.982411 L 126.279882 5.432412 M 129.268845 21.982411 L 129.268845 5.432412 M 132.257808 21.982411 L 132.257808 5.432412 M 135.246771 21.982411 L 135.246771 5.432412 M 138.291085 21.982411 L 138.291085 5.432412 M 141.224697 21.982411 L 141.224697 5.432412 " transform="matrix(0.0705721,0,0,0.0705721,-6.45481,4.780686)"/>
</g>
</g>
<g clip-path="url(#clip27)" clip-rule="nonzero">
<g clip-path="url(#clip28)" clip-rule="nonzero">
<path style="fill-rule:nonzero;fill:rgb(0%,0%,0%);fill-opacity:1;stroke-width:1.56;stroke-linecap:butt;stroke-linejoin:miter;stroke:rgb(22.352941%,30.196078%,32.941176%);stroke-opacity:1;stroke-miterlimit:4;" d="M 126.279882 21.976444 L 126.279882 5.481796 M 129.268845 21.976444 L 129.268845 5.481796 M 132.257808 21.976444 L 132.257808 5.481796 M 135.246771 21.976444 L 135.246771 5.481796 M 138.291085 21.976444 L 138.291085 5.481796 M 141.224697 21.976444 L 141.224697 5.481796 " transform="matrix(0.0705721,0,0,0.0705721,-6.45481,6.394388)"/>
</g>
</g>
<g clip-path="url(#clip29)" clip-rule="nonzero">
<g clip-path="url(#clip30)" clip-rule="nonzero">
<path style=" stroke:none;fill-rule:nonzero;fill:rgb(0%,67.45098%,82.745098%);fill-opacity:1;" d="M 3.898438 8.0625 L 5.296875 8.0625 L 5.296875 6.664062 L 3.898438 6.664062 Z M 3.898438 8.0625 "/>
</g>
</g>
<g clip-path="url(#clip31)" clip-rule="nonzero">
<g clip-path="url(#clip32)" clip-rule="nonzero">
<path style=" stroke:none;fill-rule:nonzero;fill:rgb(12.54902%,76.078431%,93.72549%);fill-opacity:1;" d="M 3.898438 6.449219 L 5.296875 6.449219 L 5.296875 5.050781 L 3.898438 5.050781 Z M 3.898438 6.449219 "/>
</g>
</g>
<g clip-path="url(#clip33)" clip-rule="nonzero">
<g clip-path="url(#clip34)" clip-rule="nonzero">
<path style="fill-rule:nonzero;fill:rgb(0%,0%,0%);fill-opacity:1;stroke-width:1.56;stroke-linecap:butt;stroke-linejoin:miter;stroke:rgb(22.352941%,30.196078%,32.941176%);stroke-opacity:1;stroke-miterlimit:4;" d="M 126.273914 21.956855 L 126.273914 5.462207 M 129.262877 21.956855 L 129.262877 5.462207 M 132.25184 21.956855 L 132.25184 5.462207 M 135.296154 21.956855 L 135.296154 5.462207 M 138.285117 21.956855 L 138.285117 5.462207 M 141.218729 21.956855 L 141.218729 5.462207 " transform="matrix(0.0705721,0,0,-0.0705721,-4.841107,8.330792)"/>
</g>
</g>
<g clip-path="url(#clip35)" clip-rule="nonzero">
<g clip-path="url(#clip36)" clip-rule="nonzero">
<path style="fill-rule:nonzero;fill:rgb(0%,0%,0%);fill-opacity:1;stroke-width:1.56;stroke-linecap:butt;stroke-linejoin:miter;stroke:rgb(22.352941%,30.196078%,32.941176%);stroke-opacity:1;stroke-miterlimit:4;" d="M 126.273914 21.950887 L 126.273914 5.45624 M 129.262877 21.950887 L 129.262877 5.45624 M 132.25184 21.950887 L 132.25184 5.45624 M 135.296154 21.950887 L 135.296154 5.45624 M 138.285117 21.950887 L 138.285117 5.45624 M 141.218729 21.950887 L 141.218729 5.45624 " transform="matrix(0.0705721,0,0,-0.0705721,-4.841107,6.71709)"/>
</g>
</g>
<g clip-path="url(#clip37)" clip-rule="nonzero">
<g clip-path="url(#clip38)" clip-rule="nonzero">
<path style=" stroke:none;fill-rule:nonzero;fill:rgb(0%,67.45098%,82.745098%);fill-opacity:1;" d="M 5.511719 5.050781 L 6.914062 5.050781 L 6.914062 6.449219 L 5.511719 6.449219 Z M 5.511719 5.050781 "/>
</g>
</g>
<g clip-path="url(#clip39)" clip-rule="nonzero">
<g clip-path="url(#clip40)" clip-rule="nonzero">
<path style=" stroke:none;fill-rule:nonzero;fill:rgb(12.54902%,76.078431%,93.72549%);fill-opacity:1;" d="M 5.511719 6.664062 L 6.914062 6.664062 L 6.914062 8.0625 L 5.511719 8.0625 Z M 5.511719 6.664062 "/>
</g>
</g>
<g clip-path="url(#clip41)" clip-rule="nonzero">
<g clip-path="url(#clip42)" clip-rule="nonzero">
<path style="fill-rule:nonzero;fill:rgb(0%,0%,0%);fill-opacity:1;stroke-width:1.56;stroke-linecap:butt;stroke-linejoin:miter;stroke:rgb(22.352941%,30.196078%,32.941176%);stroke-opacity:1;stroke-miterlimit:4;" d="M 126.267946 21.982411 L 126.267946 5.432412 M 129.256909 21.982411 L 129.256909 5.432412 M 132.245872 21.982411 L 132.245872 5.432412 M 135.290186 21.982411 L 135.290186 5.432412 M 138.279149 21.982411 L 138.279149 5.432412 M 141.268112 21.982411 L 141.268112 5.432412 " transform="matrix(0.0705721,0,0,0.0705721,-3.227405,4.780686)"/>
</g>
</g>
<g clip-path="url(#clip43)" clip-rule="nonzero">
<g clip-path="url(#clip44)" clip-rule="nonzero">
<path style="fill-rule:nonzero;fill:rgb(0%,0%,0%);fill-opacity:1;stroke-width:1.56;stroke-linecap:butt;stroke-linejoin:miter;stroke:rgb(22.352941%,30.196078%,32.941176%);stroke-opacity:1;stroke-miterlimit:4;" d="M 126.267946 21.976444 L 126.267946 5.481796 M 129.256909 21.976444 L 129.256909 5.481796 M 132.245872 21.976444 L 132.245872 5.481796 M 135.290186 21.976444 L 135.290186 5.481796 M 138.279149 21.976444 L 138.279149 5.481796 M 141.268112 21.976444 L 141.268112 5.481796 " transform="matrix(0.0705721,0,0,0.0705721,-3.227405,6.394388)"/>
</g>
</g>
<g clip-path="url(#clip45)" clip-rule="nonzero">
<g clip-path="url(#clip46)" clip-rule="nonzero">
<path style=" stroke:none;fill-rule:nonzero;fill:rgb(0%,67.45098%,82.745098%);fill-opacity:1;" d="M 7.128906 8.0625 L 8.527344 8.0625 L 8.527344 6.664062 L 7.128906 6.664062 Z M 7.128906 8.0625 "/>
</g>
</g>
<g clip-path="url(#clip47)" clip-rule="nonzero">
<g clip-path="url(#clip48)" clip-rule="nonzero">
<path style=" stroke:none;fill-rule:nonzero;fill:rgb(12.54902%,76.078431%,93.72549%);fill-opacity:1;" d="M 7.128906 6.449219 L 8.527344 6.449219 L 8.527344 5.050781 L 7.128906 5.050781 Z M 7.128906 6.449219 "/>
</g>
</g>
<g clip-path="url(#clip49)" clip-rule="nonzero">
<g clip-path="url(#clip50)" clip-rule="nonzero">
<path style="fill-rule:nonzero;fill:rgb(0%,0%,0%);fill-opacity:1;stroke-width:1.56;stroke-linecap:butt;stroke-linejoin:miter;stroke:rgb(22.352941%,30.196078%,32.941176%);stroke-opacity:1;stroke-miterlimit:4;" d="M 126.317329 21.956855 L 126.317329 5.462207 M 129.250941 21.956855 L 129.250941 5.462207 M 132.239904 21.956855 L 132.239904 5.462207 M 135.284218 21.956855 L 135.284218 5.462207 M 138.273181 21.956855 L 138.273181 5.462207 M 141.262144 21.956855 L 141.262144 5.462207 " transform="matrix(0.0705721,0,0,-0.0705721,-1.613702,8.330792)"/>
</g>
</g>
<g clip-path="url(#clip51)" clip-rule="nonzero">
<g clip-path="url(#clip52)" clip-rule="nonzero">
<path style="fill-rule:nonzero;fill:rgb(0%,0%,0%);fill-opacity:1;stroke-width:1.56;stroke-linecap:butt;stroke-linejoin:miter;stroke:rgb(22.352941%,30.196078%,32.941176%);stroke-opacity:1;stroke-miterlimit:4;" d="M 126.317329 21.950887 L 126.317329 5.45624 M 129.250941 21.950887 L 129.250941 5.45624 M 132.239904 21.950887 L 132.239904 5.45624 M 135.284218 21.950887 L 135.284218 5.45624 M 138.273181 21.950887 L 138.273181 5.45624 M 141.262144 21.950887 L 141.262144 5.45624 " transform="matrix(0.0705721,0,0,-0.0705721,-1.613702,6.71709)"/>
</g>
</g>
<g clip-path="url(#clip53)" clip-rule="nonzero">
<g clip-path="url(#clip54)" clip-rule="nonzero">
<path style=" stroke:none;fill-rule:nonzero;fill:rgb(0%,67.45098%,82.745098%);fill-opacity:1;" d="M 8.742188 5.050781 L 10.140625 5.050781 L 10.140625 6.449219 L 8.742188 6.449219 Z M 8.742188 5.050781 "/>
</g>
</g>
<g clip-path="url(#clip55)" clip-rule="nonzero">
<g clip-path="url(#clip56)" clip-rule="nonzero">
<path style=" stroke:none;fill-rule:nonzero;fill:rgb(12.54902%,76.078431%,93.72549%);fill-opacity:1;" d="M 8.742188 6.664062 L 10.140625 6.664062 L 10.140625 8.0625 L 8.742188 8.0625 Z M 8.742188 6.664062 "/>
</g>
</g>
<g clip-path="url(#clip57)" clip-rule="nonzero">
<g clip-path="url(#clip58)" clip-rule="nonzero">
<path style=" stroke:none;fill-rule:nonzero;fill:rgb(0%,0%,0%);fill-opacity:1;" d="M 8.914062 6.332031 L 8.914062 5.164062 M 9.121094 6.332031 L 9.121094 5.164062 M 9.335938 6.332031 L 9.335938 5.164062 M 9.546875 6.332031 L 9.546875 5.164062 M 9.757812 6.332031 L 9.757812 5.164062 M 9.96875 6.332031 L 9.96875 5.164062 "/>
</g>
</g>
<g clip-path="url(#clip59)" clip-rule="nonzero">
<g clip-path="url(#clip60)" clip-rule="nonzero">
<path style="fill:none;stroke-width:1.56;stroke-linecap:butt;stroke-linejoin:miter;stroke:rgb(22.352941%,30.196078%,32.941176%);stroke-opacity:1;stroke-miterlimit:4;" d="M 126.311361 21.982411 L 126.311361 5.432412 M 129.244973 21.982411 L 129.244973 5.432412 M 132.289287 21.982411 L 132.289287 5.432412 M 135.27825 21.982411 L 135.27825 5.432412 M 138.267213 21.982411 L 138.267213 5.432412 M 141.256177 21.982411 L 141.256177 5.432412 " transform="matrix(0.0705721,0,0,0.0705721,0.000000167432,4.780686)"/>
</g>
</g>
<g clip-path="url(#clip61)" clip-rule="nonzero">
<g clip-path="url(#clip62)" clip-rule="nonzero">
<path style=" stroke:none;fill-rule:nonzero;fill:rgb(0%,0%,0%);fill-opacity:1;" d="M 8.914062 7.945312 L 8.914062 6.78125 M 9.121094 7.945312 L 9.121094 6.78125 M 9.335938 7.945312 L 9.335938 6.78125 M 9.546875 7.945312 L 9.546875 6.78125 M 9.757812 7.945312 L 9.757812 6.78125 M 9.96875 7.945312 L 9.96875 6.78125 "/>
</g>
</g>
<g clip-path="url(#clip63)" clip-rule="nonzero">
<g clip-path="url(#clip64)" clip-rule="nonzero">
<path style="fill:none;stroke-width:1.56;stroke-linecap:butt;stroke-linejoin:miter;stroke:rgb(22.352941%,30.196078%,32.941176%);stroke-opacity:1;stroke-miterlimit:4;" d="M 126.311361 21.976444 L 126.311361 5.481796 M 129.244973 21.976444 L 129.244973 5.481796 M 132.289287 21.976444 L 132.289287 5.481796 M 135.27825 21.976444 L 135.27825 5.481796 M 138.267213 21.976444 L 138.267213 5.481796 M 141.256177 21.976444 L 141.256177 5.481796 " transform="matrix(0.0705721,0,0,0.0705721,0.000000167432,6.394388)"/>
</g>
</g>
<g clip-path="url(#clip65)" clip-rule="nonzero">
<g clip-path="url(#clip66)" clip-rule="nonzero">
<path style=" stroke:none;fill-rule:nonzero;fill:rgb(0%,67.45098%,82.745098%);fill-opacity:1;" d="M 10.355469 8.0625 L 11.753906 8.0625 L 11.753906 6.664062 L 10.355469 6.664062 Z M 10.355469 8.0625 "/>
</g>
</g>
<g clip-path="url(#clip67)" clip-rule="nonzero">
<g clip-path="url(#clip68)" clip-rule="nonzero">
<path style=" stroke:none;fill-rule:nonzero;fill:rgb(12.54902%,76.078431%,93.72549%);fill-opacity:1;" d="M 10.355469 6.449219 L 11.753906 6.449219 L 11.753906 5.050781 L 10.355469 5.050781 Z M 10.355469 6.449219 "/>
</g>
</g>
<g clip-path="url(#clip69)" clip-rule="nonzero">
<g clip-path="url(#clip70)" clip-rule="nonzero">
<path style="fill-rule:nonzero;fill:rgb(0%,0%,0%);fill-opacity:1;stroke-width:1.56;stroke-linecap:butt;stroke-linejoin:miter;stroke:rgb(22.352941%,30.196078%,32.941176%);stroke-opacity:1;stroke-miterlimit:4;" d="M 126.305393 21.956855 L 126.305393 5.462207 M 129.239005 21.956855 L 129.239005 5.462207 M 132.283319 21.956855 L 132.283319 5.462207 M 135.272283 21.956855 L 135.272283 5.462207 M 138.261246 21.956855 L 138.261246 5.462207 M 141.250209 21.956855 L 141.250209 5.462207 " transform="matrix(0.0705721,0,0,-0.0705721,1.613703,8.330792)"/>
</g>
</g>
<g clip-path="url(#clip71)" clip-rule="nonzero">
<g clip-path="url(#clip72)" clip-rule="nonzero">
<path style="fill-rule:nonzero;fill:rgb(0%,0%,0%);fill-opacity:1;stroke-width:1.56;stroke-linecap:butt;stroke-linejoin:miter;stroke:rgb(22.352941%,30.196078%,32.941176%);stroke-opacity:1;stroke-miterlimit:4;" d="M 126.305393 21.950887 L 126.305393 5.45624 M 129.239005 21.950887 L 129.239005 5.45624 M 132.283319 21.950887 L 132.283319 5.45624 M 135.272283 21.950887 L 135.272283 5.45624 M 138.261246 21.950887 L 138.261246 5.45624 M 141.250209 21.950887 L 141.250209 5.45624 " transform="matrix(0.0705721,0,0,-0.0705721,1.613703,6.71709)"/>
</g>
</g>
<g clip-path="url(#clip73)" clip-rule="nonzero">
<g clip-path="url(#clip74)" clip-rule="nonzero">
<path style=" stroke:none;fill-rule:nonzero;fill:rgb(9.019608%,70.980392%,92.156863%);fill-opacity:1;" d="M 15.636719 7.003906 C 15.746094 6.164062 15.117188 5.503906 14.726562 5.191406 C 14.277344 5.710938 14.207031 7.074219 14.910156 7.644531 C 14.515625 7.996094 13.6875 8.3125 12.839844 8.3125 L 2.398438 8.3125 C 2.316406 9.199219 2.398438 13.46875 2.398438 13.46875 L 17.714844 13.46875 L 17.644531 7.019531 C 16.980469 6.636719 16.128906 6.757812 15.636719 7.003906 "/>
</g>
</g>
<g clip-path="url(#clip75)" clip-rule="nonzero">
<g clip-path="url(#clip76)" clip-rule="nonzero">
<path style=" stroke:none;fill-rule:nonzero;fill:rgb(0%,0%,0%);fill-opacity:0.168627;" d="M 2.398438 9.449219 L 2.398438 13.46875 L 17.714844 13.46875 L 17.714844 9.449219 "/>
</g>
</g>
<g clip-path="url(#clip77)" clip-rule="nonzero">
<g clip-path="url(#clip78)" clip-rule="nonzero">
<path style=" stroke:none;fill-rule:nonzero;fill:rgb(83.137255%,92.941176%,94.509804%);fill-opacity:1;" d="M 7.851562 13.109375 C 6.894531 12.65625 6.371094 12.039062 6.078125 11.367188 L 3.175781 11.496094 L 4.65625 13.46875 L 7.851562 13.109375 "/>
</g>
</g>
<g clip-path="url(#clip79)" clip-rule="nonzero">
<g clip-path="url(#clip80)" clip-rule="nonzero">
<path style=" stroke:none;fill-rule:nonzero;fill:rgb(0%,0%,0%);fill-opacity:0.0862745;" d="M 15.703125 6.972656 L 15.703125 6.976562 C 14.230469 8.875 12.117188 10.53125 9.851562 11.402344 C 7.828125 12.179688 6.066406 12.183594 4.851562 11.558594 C 4.71875 11.484375 4.589844 11.402344 4.460938 11.324219 C 3.570312 10.703125 3.066406 9.671875 3.109375 8.3125 L 2.398438 8.3125 L 2.398438 13.46875 L 17.714844 13.46875 L 17.714844 6.695312 L 15.949219 6.695312 Z M 15.703125 6.972656 "/>
</g>
</g>
<path style="fill:none;stroke-width:0.628;stroke-linecap:round;stroke-linejoin:miter;stroke:rgb(22.352941%,30.196078%,32.941176%);stroke-opacity:1;stroke-miterlimit:4;" d="M 11.492651 9.612102 C 14.10925 9.755197 16.899608 9.78586 19.342449 9.019278 " transform="matrix(0.382175,0,0,0.382175,-1.173459,7.752272)"/>
<path style=" stroke:none;fill-rule:nonzero;fill:rgb(83.137255%,92.941176%,94.509804%);fill-opacity:1;" d="M 7.210938 10.714844 C 7.210938 10.929688 7.039062 11.101562 6.824219 11.101562 C 6.613281 11.101562 6.4375 10.929688 6.4375 10.714844 C 6.4375 10.503906 6.613281 10.328125 6.824219 10.328125 C 7.039062 10.328125 7.210938 10.503906 7.210938 10.714844 Z M 7.210938 10.714844 "/>
<path style=" stroke:none;fill-rule:nonzero;fill:rgb(22.352941%,30.196078%,32.941176%);fill-opacity:1;" d="M 6.929688 10.457031 C 6.894531 10.476562 6.871094 10.515625 6.871094 10.554688 C 6.871094 10.617188 6.921875 10.667969 6.984375 10.667969 C 7.027344 10.667969 7.0625 10.644531 7.085938 10.609375 C 7.097656 10.644531 7.105469 10.679688 7.105469 10.714844 C 7.105469 10.867188 6.980469 10.992188 6.828125 10.992188 C 6.675781 10.992188 6.550781 10.867188 6.550781 10.714844 C 6.550781 10.5625 6.675781 10.4375 6.828125 10.4375 C 6.863281 10.4375 6.898438 10.445312 6.929688 10.457031 Z M 0 9.53125 L 17.949219 9.53125 C 17.558594 9.429688 16.710938 9.300781 16.851562 8.785156 C 16.140625 9.605469 14.425781 9.355469 13.996094 8.957031 C 13.511719 9.652344 10.710938 9.386719 10.515625 8.839844 C 9.910156 9.550781 8.039062 9.550781 7.433594 8.839844 C 7.238281 9.386719 4.4375 9.652344 3.957031 8.957031 C 3.519531 9.355469 1.808594 9.605469 1.097656 8.785156 C 1.234375 9.296875 0.390625 9.433594 0 9.53125 "/>
</g>
</svg>
