<?xml version="1.0" encoding="UTF-8"?>
<svg xmlns="http://www.w3.org/2000/svg" xmlns:xlink="http://www.w3.org/1999/xlink" width="18pt" height="18pt" viewBox="0 0 18 18" version="1.1">
<g id="surface1">
<path style=" stroke:none;fill-rule:nonzero;fill:rgb(0%,0%,0%);fill-opacity:1;" d="M 18 13.945312 C 17.34375 14.113281 16.941406 13.953125 16.578125 13.410156 L 13.992188 9.832031 L 13.621094 9.339844 L 10.601562 13.421875 C 10.257812 13.910156 9.894531 14.125 9.25 13.953125 L 13.117188 8.765625 L 9.519531 4.078125 C 10.136719 3.957031 10.5625 4.019531 10.945312 4.574219 L 13.625 8.195312 L 16.324219 4.59375 C 16.671875 4.101562 17.042969 3.914062 17.664062 4.097656 L 16.269531 5.945312 L 14.378906 8.40625 C 14.152344 8.6875 14.183594 8.878906 14.390625 9.152344 Z M 0.00390625 8.675781 L 0.320312 7.121094 C 1.179688 4.046875 4.707031 2.765625 7.140625 4.667969 C 8.5625 5.785156 8.914062 7.367188 8.84375 9.140625 L 0.832031 9.140625 C 0.710938 12.328125 3.007812 14.253906 5.933594 13.273438 C 6.960938 12.929688 7.566406 12.125 7.867188 11.117188 C 8.023438 10.613281 8.277344 10.535156 8.75 10.679688 C 8.507812 11.9375 7.960938 12.988281 6.808594 13.644531 C 5.085938 14.628906 2.625 14.3125 1.332031 12.945312 C 0.5625 12.148438 0.242188 11.144531 0.101562 10.070312 C 0.078125 9.890625 0.0351562 9.722656 0 9.550781 C 0.00390625 9.261719 0.00390625 8.96875 0.00390625 8.679688 Z M 0.847656 8.464844 L 8.085938 8.464844 C 8.039062 6.15625 6.605469 4.519531 4.640625 4.503906 C 2.488281 4.488281 0.941406 6.089844 0.847656 8.464844 Z M 0.847656 8.464844 "/>
</g>
</svg>
