<?xml version="1.0" encoding="UTF-8"?>
<svg xmlns="http://www.w3.org/2000/svg" xmlns:xlink="http://www.w3.org/1999/xlink" width="18pt" height="18pt" viewBox="0 0 18 18" version="1.1">
<g id="surface1">
<path style=" stroke:none;fill-rule:nonzero;fill:rgb(0%,0%,0%);fill-opacity:1;" d="M 1.972656 1.125 C 1.472656 1.125 1.070312 1.570312 1.132812 2.070312 L 2.667969 14.796875 C 2.738281 15.359375 3.140625 15.828125 3.6875 15.984375 L 8.617188 17.382812 C 8.867188 17.453125 9.128906 17.457031 9.378906 17.386719 L 14.566406 15.984375 C 15.132812 15.828125 15.546875 15.34375 15.605469 14.761719 L 16.882812 2.054688 C 16.933594 1.558594 16.535156 1.125 16.039062 1.125 Z M 1.972656 1.6875 L 16.039062 1.6875 C 16.214844 1.6875 16.339844 1.828125 16.324219 2 L 16.28125 2.402344 C 16.234375 2.304688 16.136719 2.246094 16.027344 2.246094 C 15.871094 2.25 15.746094 2.375 15.75 2.53125 L 15.75 3.09375 C 15.75 3.199219 15.804688 3.296875 15.898438 3.34375 C 15.992188 3.394531 16.101562 3.390625 16.1875 3.328125 L 15.042969 14.707031 C 15.007812 15.058594 14.761719 15.347656 14.417969 15.441406 L 9.230469 16.84375 C 9.082031 16.886719 8.921875 16.886719 8.773438 16.84375 L 3.839844 15.441406 C 3.507812 15.347656 3.269531 15.066406 3.226562 14.730469 L 1.851562 3.355469 C 1.941406 3.394531 2.042969 3.386719 2.121094 3.332031 C 2.203125 3.28125 2.25 3.191406 2.25 3.09375 L 2.25 2.53125 C 2.25 2.457031 2.222656 2.382812 2.167969 2.328125 C 2.113281 2.273438 2.039062 2.246094 1.964844 2.246094 C 1.871094 2.246094 1.785156 2.296875 1.734375 2.371094 L 1.691406 2.003906 C 1.667969 1.832031 1.796875 1.6875 1.972656 1.6875 Z M 3.371094 2.246094 C 3.214844 2.25 3.089844 2.375 3.09375 2.53125 L 3.09375 3.09375 C 3.09375 3.195312 3.144531 3.289062 3.234375 3.339844 C 3.320312 3.390625 3.429688 3.390625 3.515625 3.339844 C 3.605469 3.289062 3.65625 3.195312 3.65625 3.09375 L 3.65625 2.53125 C 3.65625 2.457031 3.628906 2.382812 3.574219 2.328125 C 3.519531 2.273438 3.445312 2.246094 3.371094 2.246094 Z M 4.777344 2.246094 C 4.621094 2.25 4.496094 2.375 4.5 2.53125 L 4.5 3.09375 C 4.5 3.195312 4.550781 3.289062 4.640625 3.339844 C 4.726562 3.390625 4.835938 3.390625 4.921875 3.339844 C 5.011719 3.289062 5.0625 3.195312 5.0625 3.09375 L 5.0625 2.53125 C 5.0625 2.457031 5.035156 2.382812 4.980469 2.328125 C 4.925781 2.273438 4.851562 2.246094 4.777344 2.246094 Z M 6.183594 2.246094 C 6.027344 2.25 5.902344 2.375 5.90625 2.53125 L 5.90625 3.09375 C 5.90625 3.195312 5.957031 3.289062 6.046875 3.339844 C 6.132812 3.390625 6.242188 3.390625 6.328125 3.339844 C 6.417969 3.289062 6.46875 3.195312 6.46875 3.09375 L 6.46875 2.53125 C 6.46875 2.457031 6.441406 2.382812 6.386719 2.328125 C 6.332031 2.273438 6.257812 2.246094 6.183594 2.246094 Z M 7.589844 2.246094 C 7.433594 2.25 7.308594 2.375 7.3125 2.53125 L 7.3125 3.09375 C 7.3125 3.195312 7.363281 3.289062 7.453125 3.339844 C 7.539062 3.390625 7.648438 3.390625 7.734375 3.339844 C 7.824219 3.289062 7.875 3.195312 7.875 3.09375 L 7.875 2.53125 C 7.875 2.457031 7.847656 2.382812 7.792969 2.328125 C 7.738281 2.273438 7.664062 2.246094 7.589844 2.246094 Z M 8.996094 2.246094 C 8.839844 2.25 8.714844 2.375 8.71875 2.53125 L 8.71875 3.09375 C 8.71875 3.195312 8.769531 3.289062 8.859375 3.339844 C 8.945312 3.390625 9.054688 3.390625 9.140625 3.339844 C 9.230469 3.289062 9.28125 3.195312 9.28125 3.09375 L 9.28125 2.53125 C 9.28125 2.457031 9.253906 2.382812 9.199219 2.328125 C 9.144531 2.273438 9.070312 2.246094 8.996094 2.246094 Z M 10.402344 2.246094 C 10.246094 2.25 10.121094 2.375 10.125 2.53125 L 10.125 3.09375 C 10.125 3.195312 10.175781 3.289062 10.265625 3.339844 C 10.351562 3.390625 10.460938 3.390625 10.546875 3.339844 C 10.636719 3.289062 10.6875 3.195312 10.6875 3.09375 L 10.6875 2.53125 C 10.6875 2.457031 10.660156 2.382812 10.605469 2.328125 C 10.550781 2.273438 10.476562 2.246094 10.402344 2.246094 Z M 11.808594 2.246094 C 11.652344 2.25 11.527344 2.375 11.53125 2.53125 L 11.53125 3.09375 C 11.53125 3.195312 11.582031 3.289062 11.671875 3.339844 C 11.757812 3.390625 11.867188 3.390625 11.953125 3.339844 C 12.042969 3.289062 12.09375 3.195312 12.09375 3.09375 L 12.09375 2.53125 C 12.09375 2.457031 12.066406 2.382812 12.011719 2.328125 C 11.957031 2.273438 11.882812 2.246094 11.808594 2.246094 Z M 13.214844 2.246094 C 13.058594 2.25 12.933594 2.375 12.9375 2.53125 L 12.9375 3.09375 C 12.9375 3.195312 12.988281 3.289062 13.078125 3.339844 C 13.164062 3.390625 13.273438 3.390625 13.359375 3.339844 C 13.449219 3.289062 13.5 3.195312 13.5 3.09375 L 13.5 2.53125 C 13.5 2.457031 13.472656 2.382812 13.417969 2.328125 C 13.363281 2.273438 13.289062 2.246094 13.214844 2.246094 Z M 14.621094 2.246094 C 14.464844 2.25 14.339844 2.375 14.34375 2.53125 L 14.34375 3.09375 C 14.34375 3.195312 14.394531 3.289062 14.484375 3.339844 C 14.570312 3.390625 14.679688 3.390625 14.765625 3.339844 C 14.855469 3.289062 14.90625 3.195312 14.90625 3.09375 L 14.90625 2.53125 C 14.90625 2.457031 14.878906 2.382812 14.824219 2.328125 C 14.769531 2.273438 14.695312 2.246094 14.621094 2.246094 Z M 4.78125 4.5 C 4.441406 4.5 4.171875 4.8125 4.226562 5.148438 L 4.441406 6.511719 C 4.460938 6.648438 4.578125 6.75 4.71875 6.75 L 11.320312 6.75 L 11.1875 7.875 L 7.03125 7.875 C 6.875 7.875 6.75 8 6.75 8.15625 L 6.75 9.84375 C 6.75 10 6.875 10.125 7.03125 10.125 L 10.921875 10.125 L 10.726562 11.773438 L 9.03125 12.289062 L 7.546875 11.789062 L 7.449219 11.164062 C 7.449219 11.164062 7.449219 11.164062 7.449219 11.160156 C 7.40625 10.890625 7.167969 10.6875 6.894531 10.6875 L 5.757812 10.6875 C 5.414062 10.6875 5.148438 11 5.199219 11.335938 C 5.199219 11.335938 5.199219 11.335938 5.199219 11.339844 L 5.484375 13.148438 C 5.519531 13.351562 5.660156 13.523438 5.859375 13.589844 L 8.828125 14.597656 C 8.882812 14.613281 8.945312 14.625 9.003906 14.625 C 9.058594 14.625 9.113281 14.617188 9.164062 14.601562 L 12.441406 13.601562 C 12.652344 13.539062 12.804688 13.355469 12.832031 13.132812 L 13.644531 6.253906 L 13.777344 5.125 C 13.816406 4.796875 13.554688 4.5 13.222656 4.5 Z M 4.78125 5.0625 L 13.21875 5.0625 L 13.085938 6.1875 L 12.273438 13.066406 L 9.003906 14.0625 L 6.039062 13.058594 L 5.757812 11.25 L 6.894531 11.25 L 7.019531 12.042969 C 7.035156 12.148438 7.109375 12.230469 7.207031 12.265625 L 8.9375 12.851562 C 8.992188 12.871094 9.050781 12.871094 9.109375 12.855469 L 11.066406 12.257812 C 11.171875 12.226562 11.25 12.132812 11.265625 12.019531 L 11.515625 9.875 C 11.527344 9.796875 11.5 9.71875 11.449219 9.65625 C 11.394531 9.597656 11.316406 9.5625 11.238281 9.5625 L 7.3125 9.5625 L 7.3125 8.4375 L 11.4375 8.4375 C 11.578125 8.4375 11.699219 8.332031 11.714844 8.1875 L 11.914062 6.5 C 11.925781 6.421875 11.898438 6.34375 11.847656 6.28125 C 11.792969 6.222656 11.714844 6.1875 11.636719 6.1875 L 4.957031 6.1875 Z M 11.8125 14.699219 C 11.789062 14.699219 11.761719 14.703125 11.738281 14.710938 L 11.175781 14.859375 C 11.078125 14.886719 11 14.960938 10.972656 15.058594 C 10.945312 15.160156 10.972656 15.265625 11.046875 15.335938 C 11.121094 15.40625 11.226562 15.433594 11.324219 15.402344 L 11.886719 15.25 C 12.023438 15.214844 12.113281 15.085938 12.09375 14.941406 C 12.078125 14.800781 11.957031 14.695312 11.8125 14.699219 Z M 7.585938 15.054688 C 7.445312 15.058594 7.328125 15.164062 7.3125 15.300781 C 7.292969 15.441406 7.382812 15.570312 7.515625 15.609375 L 9.007812 16.03125 L 10.199219 15.707031 C 10.296875 15.683594 10.375 15.609375 10.402344 15.511719 C 10.429688 15.410156 10.402344 15.304688 10.328125 15.234375 C 10.253906 15.164062 10.148438 15.136719 10.050781 15.167969 L 9.011719 15.449219 L 7.671875 15.066406 C 7.644531 15.058594 7.617188 15.054688 7.585938 15.054688 Z M 7.585938 15.054688 "/>
</g>
</svg>
