<?xml version="1.0" encoding="UTF-8"?>
<svg xmlns="http://www.w3.org/2000/svg" xmlns:xlink="http://www.w3.org/1999/xlink" width="18pt" height="18pt" viewBox="0 0 18 18" version="1.1">
<g id="surface1">
<path style=" stroke:none;fill-rule:nonzero;fill:rgb(0%,0%,0%);fill-opacity:1;" d="M 2.9375 2.25 L 2.988281 2.867188 L 3.972656 13.992188 L 4.007812 14.378906 L 4.378906 14.484375 L 8.839844 15.730469 L 8.984375 15.769531 L 9.140625 15.730469 L 13.605469 14.5 L 13.976562 14.398438 L 14.007812 14.007812 L 15.011719 2.867188 L 15.0625 2.269531 L 14.449219 2.269531 L 3.550781 2.25 Z M 4.167969 3.375 L 13.835938 3.394531 L 12.917969 13.519531 L 9 14.605469 L 5.0625 13.519531 Z M 5.519531 5.0625 L 5.890625 9.261719 L 10.707031 9.261719 L 10.546875 11.074219 L 9 11.496094 L 8.984375 11.496094 L 7.433594 11.074219 L 7.347656 9.914062 L 5.941406 9.914062 L 6.132812 12.148438 L 8.984375 12.9375 L 9 12.9375 L 11.847656 12.148438 L 12.234375 7.875 L 7.152344 7.875 L 7.03125 6.453125 L 12.355469 6.453125 L 12.480469 5.0625 Z M 5.519531 5.0625 "/>
</g>
</svg>
