<?xml version="1.0" encoding="UTF-8"?>
<svg xmlns="http://www.w3.org/2000/svg" xmlns:xlink="http://www.w3.org/1999/xlink" width="18pt" height="20pt" viewBox="0 0 18 20" version="1.1">
<g id="surface1">
<path style=" stroke:none;fill-rule:nonzero;fill:rgb(0%,0%,0%);fill-opacity:1;" d="M 16.070312 1.25 L 1.929688 1.25 C 0.863281 1.25 0 2.089844 0 3.125 L 0 16.875 C 0 17.910156 0.863281 18.75 1.929688 18.75 L 16.070312 18.75 C 17.136719 18.75 18 17.910156 18 16.875 L 18 3.125 C 18 2.089844 17.136719 1.25 16.070312 1.25 Z M 9.796875 14.898438 C 9.796875 16.601562 8.765625 17.378906 7.269531 17.378906 C 5.914062 17.378906 5.128906 16.699219 4.730469 15.875 L 6.105469 15.066406 C 6.371094 15.523438 6.613281 15.910156 7.195312 15.910156 C 7.75 15.910156 8.105469 15.699219 8.105469 14.875 L 8.105469 9.285156 L 9.796875 9.285156 Z M 13.796875 17.378906 C 12.226562 17.378906 11.210938 16.652344 10.714844 15.699219 L 12.09375 14.925781 C 12.457031 15.5 12.929688 15.925781 13.761719 15.925781 C 14.460938 15.925781 14.910156 15.585938 14.910156 15.113281 C 14.910156 14.550781 14.453125 14.351562 13.675781 14.019531 L 13.253906 13.84375 C 12.035156 13.339844 11.226562 12.703125 11.226562 11.363281 C 11.226562 10.128906 12.195312 9.191406 13.699219 9.191406 C 14.777344 9.191406 15.550781 9.554688 16.105469 10.507812 L 14.785156 11.328125 C 14.496094 10.824219 14.183594 10.625 13.695312 10.625 C 13.203125 10.625 12.890625 10.929688 12.890625 11.328125 C 12.890625 11.820312 13.203125 12.019531 13.929688 12.328125 L 14.351562 12.503906 C 15.789062 13.101562 16.597656 13.714844 16.597656 15.089844 C 16.597656 16.566406 15.402344 17.378906 13.796875 17.378906 Z M 13.796875 17.378906 "/>
</g>
</svg>
