<?xml version="1.0" encoding="UTF-8"?>
<svg xmlns="http://www.w3.org/2000/svg" xmlns:xlink="http://www.w3.org/1999/xlink" width="18pt" height="20pt" viewBox="0 0 18 20" version="1.1">
<g id="surface1">
<path style=" stroke:none;fill-rule:nonzero;fill:rgb(0%,0%,0%);fill-opacity:1;" d="M 9 19.84375 C 8.730469 19.84375 8.457031 19.773438 8.21875 19.640625 L 5.742188 18.214844 C 5.371094 18.011719 5.550781 17.941406 5.671875 17.902344 C 6.167969 17.734375 6.269531 17.699219 6.792969 17.40625 C 6.851562 17.375 6.921875 17.386719 6.980469 17.421875 L 8.882812 18.519531 C 8.953125 18.558594 9.046875 18.558594 9.113281 18.519531 L 16.535156 14.355469 C 16.601562 14.316406 16.644531 14.238281 16.644531 14.160156 L 16.644531 5.832031 C 16.644531 5.75 16.601562 5.675781 16.53125 5.632812 L 9.113281 1.472656 C 9.042969 1.433594 8.953125 1.433594 8.882812 1.472656 L 1.46875 5.636719 C 1.398438 5.675781 1.355469 5.753906 1.355469 5.835938 L 1.355469 14.160156 C 1.355469 14.238281 1.398438 14.316406 1.46875 14.351562 L 3.503906 15.492188 C 4.609375 16.027344 5.285156 15.398438 5.285156 14.761719 L 5.285156 6.542969 C 5.285156 6.425781 5.378906 6.335938 5.5 6.335938 L 6.441406 6.335938 C 6.558594 6.335938 6.65625 6.425781 6.65625 6.542969 L 6.65625 14.765625 C 6.65625 16.195312 5.855469 17.015625 4.460938 17.015625 C 4.03125 17.015625 3.691406 17.015625 2.753906 16.5625 L 0.808594 15.472656 C 0.324219 15.203125 0.0273438 14.699219 0.0273438 14.15625 L 0.0273438 5.832031 C 0.0273438 5.292969 0.324219 4.785156 0.808594 4.515625 L 8.21875 0.351562 C 8.691406 0.09375 9.3125 0.09375 9.78125 0.351562 L 17.199219 4.519531 C 17.683594 4.789062 17.980469 5.292969 17.980469 5.835938 L 17.980469 14.160156 C 17.980469 14.699219 17.683594 15.203125 17.199219 15.476562 L 9.78125 19.640625 C 9.542969 19.773438 9.273438 19.84375 9 19.84375 Z M 14.992188 11.636719 C 14.992188 10.078125 13.90625 9.664062 11.628906 9.371094 C 9.320312 9.074219 9.089844 8.921875 9.089844 8.398438 C 9.089844 7.964844 9.285156 7.386719 10.992188 7.386719 C 12.515625 7.386719 13.078125 7.707031 13.3125 8.707031 C 13.332031 8.800781 13.417969 8.871094 13.519531 8.871094 L 14.484375 8.871094 C 14.542969 8.871094 14.601562 8.847656 14.640625 8.804688 C 14.679688 8.761719 14.703125 8.703125 14.699219 8.644531 C 14.546875 6.921875 13.371094 6.121094 10.992188 6.121094 C 8.875 6.121094 7.613281 6.988281 7.613281 8.445312 C 7.613281 10.023438 8.871094 10.460938 10.902344 10.65625 C 13.332031 10.886719 13.519531 11.234375 13.519531 11.699219 C 13.519531 12.503906 12.851562 12.847656 11.289062 12.847656 C 9.324219 12.847656 8.894531 12.367188 8.75 11.417969 C 8.734375 11.316406 8.644531 11.242188 8.539062 11.242188 L 7.578125 11.242188 C 7.457031 11.242188 7.363281 11.335938 7.363281 11.449219 C 7.363281 12.664062 8.042969 14.113281 11.292969 14.113281 C 13.640625 14.109375 14.992188 13.207031 14.992188 11.636719 Z M 14.992188 11.636719 "/>
</g>
</svg>
