<?xml version="1.0" encoding="UTF-8"?>
<svg xmlns="http://www.w3.org/2000/svg" xmlns:xlink="http://www.w3.org/1999/xlink" width="18pt" height="20pt" viewBox="0 0 18 20" version="1.1">
<g id="surface1">
<path style=" stroke:none;fill-rule:nonzero;fill:rgb(0%,0%,0%);fill-opacity:1;" d="M 17.671875 7.832031 C 17.359375 6.625 16.773438 5.714844 15.523438 5.714844 L 13.914062 5.714844 L 13.914062 7.566406 C 13.914062 9.003906 12.660156 10.214844 11.230469 10.214844 L 6.9375 10.214844 C 5.765625 10.214844 4.792969 11.191406 4.792969 12.335938 L 4.792969 16.3125 C 4.792969 17.445312 5.804688 18.109375 6.9375 18.433594 C 8.296875 18.820312 9.601562 18.890625 11.230469 18.433594 C 12.3125 18.128906 13.375 17.515625 13.375 16.3125 L 13.375 14.722656 L 9.089844 14.722656 L 9.089844 14.191406 L 15.523438 14.191406 C 16.773438 14.191406 17.238281 13.34375 17.671875 12.074219 C 18.121094 10.765625 18.101562 9.507812 17.671875 7.832031 Z M 11.5 15.78125 C 11.945312 15.78125 12.308594 16.136719 12.308594 16.574219 C 12.308594 17.015625 11.945312 17.371094 11.5 17.371094 C 11.058594 17.371094 10.691406 17.011719 10.691406 16.574219 C 10.695312 16.132812 11.058594 15.78125 11.5 15.78125 Z M 6.742188 9.691406 L 11.03125 9.691406 C 12.226562 9.691406 13.179688 8.734375 13.179688 7.570312 L 13.179688 3.589844 C 13.179688 2.457031 12.199219 1.609375 11.03125 1.417969 C 9.59375 1.1875 8.03125 1.199219 6.742188 1.421875 C 4.925781 1.734375 4.597656 2.386719 4.597656 3.59375 L 4.597656 5.183594 L 8.890625 5.183594 L 8.890625 5.714844 L 2.984375 5.714844 C 1.734375 5.714844 0.644531 6.445312 0.300781 7.832031 C -0.09375 9.421875 -0.109375 10.414062 0.300781 12.074219 C 0.605469 13.308594 1.332031 14.191406 2.582031 14.191406 L 4.058594 14.191406 L 4.058594 12.285156 C 4.058594 10.90625 5.285156 9.691406 6.742188 9.691406 Z M 6.472656 4.121094 C 6.027344 4.121094 5.664062 3.765625 5.664062 3.328125 C 5.667969 2.886719 6.027344 2.53125 6.472656 2.53125 C 6.914062 2.53125 7.28125 2.890625 7.28125 3.328125 C 7.28125 3.765625 6.917969 4.121094 6.472656 4.121094 Z M 6.472656 4.121094 "/>
</g>
</svg>
