<?xml version="1.0" encoding="UTF-8"?>
<svg xmlns="http://www.w3.org/2000/svg" xmlns:xlink="http://www.w3.org/1999/xlink" width="14pt" height="14pt" viewBox="0 0 14 14" version="1.1">
<g id="surface1">
<path style=" stroke:none;fill-rule:nonzero;fill:rgb(0%,0%,0%);fill-opacity:1;" d="M 11.433594 4.84375 C 11.289062 4.796875 11.140625 4.75 10.992188 4.707031 C 11.015625 4.605469 11.039062 4.503906 11.0625 4.402344 C 11.398438 2.773438 11.175781 1.460938 10.429688 1.03125 C 9.710938 0.617188 8.535156 1.046875 7.351562 2.082031 C 7.230469 2.183594 7.117188 2.289062 7.007812 2.394531 C 6.933594 2.324219 6.859375 2.253906 6.78125 2.183594 C 5.535156 1.078125 4.289062 0.613281 3.542969 1.050781 C 2.828125 1.464844 2.613281 2.699219 2.914062 4.242188 C 2.945312 4.394531 2.976562 4.542969 3.015625 4.699219 C 2.839844 4.746094 2.667969 4.800781 2.507812 4.859375 C 1.046875 5.363281 0 6.164062 0 6.988281 C 0 7.84375 1.117188 8.699219 2.632812 9.21875 C 2.757812 9.257812 2.878906 9.300781 3.003906 9.335938 C 2.964844 9.5 2.929688 9.660156 2.894531 9.828125 C 2.609375 11.34375 2.832031 12.546875 3.550781 12.960938 C 4.289062 13.386719 5.527344 12.949219 6.738281 11.890625 C 6.832031 11.808594 6.929688 11.71875 7.023438 11.625 C 7.144531 11.742188 7.269531 11.855469 7.398438 11.964844 C 8.566406 12.972656 9.722656 13.378906 10.4375 12.964844 C 11.175781 12.539062 11.414062 11.246094 11.105469 9.671875 C 11.078125 9.550781 11.050781 9.429688 11.023438 9.300781 C 11.109375 9.277344 11.195312 9.25 11.277344 9.222656 C 12.855469 8.699219 14 7.855469 14 6.988281 C 14 6.160156 12.921875 5.355469 11.433594 4.84375 Z M 7.734375 2.523438 C 8.753906 1.636719 9.703125 1.289062 10.132812 1.539062 C 10.59375 1.804688 10.773438 2.875 10.484375 4.285156 C 10.464844 4.378906 10.445312 4.46875 10.421875 4.558594 C 9.8125 4.421875 9.199219 4.324219 8.582031 4.269531 C 8.226562 3.757812 7.835938 3.273438 7.414062 2.816406 C 7.523438 2.714844 7.625 2.621094 7.734375 2.523438 Z M 4.570312 8.40625 C 4.710938 8.644531 4.851562 8.882812 5.003906 9.117188 C 4.578125 9.070312 4.152344 9 3.734375 8.910156 C 3.855469 8.515625 4.007812 8.109375 4.179688 7.695312 C 4.304688 7.933594 4.433594 8.171875 4.570312 8.40625 Z M 3.742188 5.117188 C 4.136719 5.03125 4.554688 4.960938 4.988281 4.90625 C 4.84375 5.132812 4.703125 5.363281 4.570312 5.601562 C 4.433594 5.832031 4.304688 6.070312 4.179688 6.3125 C 4.007812 5.902344 3.863281 5.503906 3.742188 5.117188 Z M 4.492188 7.003906 C 4.671875 6.625 4.871094 6.257812 5.078125 5.894531 C 5.285156 5.527344 5.507812 5.175781 5.746094 4.828125 C 6.15625 4.800781 6.574219 4.78125 7 4.78125 C 7.425781 4.78125 7.847656 4.800781 8.253906 4.828125 C 8.488281 5.171875 8.710938 5.527344 8.917969 5.886719 C 9.128906 6.25 9.328125 6.617188 9.511719 6.992188 C 9.328125 7.367188 9.132812 7.742188 8.921875 8.109375 C 8.714844 8.472656 8.492188 8.824219 8.261719 9.171875 C 7.851562 9.203125 7.429688 9.21875 7 9.21875 C 6.570312 9.21875 6.15625 9.203125 5.753906 9.179688 C 5.515625 8.832031 5.289062 8.476562 5.082031 8.113281 C 4.871094 7.75 4.675781 7.378906 4.492188 7.003906 Z M 9.429688 8.402344 C 9.570312 8.164062 9.703125 7.917969 9.828125 7.671875 C 10.003906 8.070312 10.15625 8.472656 10.292969 8.882812 C 9.867188 8.980469 9.4375 9.054688 9.007812 9.101562 C 9.15625 8.875 9.292969 8.636719 9.429688 8.402344 Z M 9.824219 6.3125 C 9.695312 6.070312 9.566406 5.828125 9.429688 5.59375 C 9.292969 5.363281 9.15625 5.132812 9.007812 4.90625 C 9.449219 4.960938 9.871094 5.035156 10.265625 5.125 C 10.140625 5.527344 9.992188 5.921875 9.824219 6.3125 Z M 7.003906 3.234375 C 7.292969 3.546875 7.5625 3.875 7.816406 4.214844 C 7.273438 4.1875 6.730469 4.1875 6.1875 4.214844 C 6.457031 3.859375 6.730469 3.53125 7.003906 3.234375 Z M 3.832031 1.558594 C 4.292969 1.289062 5.3125 1.671875 6.386719 2.625 C 6.457031 2.683594 6.523438 2.75 6.59375 2.816406 C 6.171875 3.273438 5.78125 3.757812 5.421875 4.269531 C 4.804688 4.324219 4.191406 4.417969 3.585938 4.554688 C 3.550781 4.414062 3.519531 4.269531 3.488281 4.128906 C 3.230469 2.804688 3.402344 1.808594 3.832031 1.558594 Z M 3.164062 8.765625 C 3.046875 8.734375 2.9375 8.699219 2.824219 8.660156 C 2.242188 8.476562 1.582031 8.1875 1.101562 7.808594 C 0.824219 7.617188 0.640625 7.320312 0.585938 6.988281 C 0.585938 6.488281 1.453125 5.847656 2.699219 5.414062 C 2.855469 5.359375 3.011719 5.308594 3.171875 5.265625 C 3.359375 5.855469 3.582031 6.441406 3.84375 7.003906 C 3.578125 7.574219 3.351562 8.164062 3.164062 8.765625 Z M 6.351562 11.445312 C 5.902344 11.859375 5.378906 12.1875 4.808594 12.410156 C 4.507812 12.554688 4.15625 12.570312 3.84375 12.445312 C 3.410156 12.195312 3.230469 11.230469 3.476562 9.929688 C 3.503906 9.777344 3.539062 9.625 3.578125 9.476562 C 4.1875 9.605469 4.808594 9.695312 5.433594 9.742188 C 5.792969 10.253906 6.191406 10.742188 6.613281 11.203125 C 6.527344 11.289062 6.4375 11.371094 6.351562 11.445312 Z M 7.023438 10.78125 C 6.742188 10.480469 6.464844 10.148438 6.191406 9.789062 C 6.457031 9.800781 6.726562 9.804688 7 9.804688 C 7.28125 9.804688 7.558594 9.800781 7.832031 9.785156 C 7.578125 10.132812 7.308594 10.464844 7.023438 10.78125 Z M 10.59375 11.601562 C 10.570312 11.9375 10.40625 12.246094 10.144531 12.457031 C 9.710938 12.710938 8.78125 12.382812 7.78125 11.523438 C 7.667969 11.425781 7.550781 11.316406 7.433594 11.207031 C 7.851562 10.746094 8.238281 10.257812 8.589844 9.742188 C 9.214844 9.691406 9.839844 9.59375 10.453125 9.457031 C 10.480469 9.566406 10.503906 9.679688 10.527344 9.789062 C 10.660156 10.378906 10.683594 10.996094 10.59375 11.601562 Z M 11.09375 8.664062 C 11.015625 8.6875 10.941406 8.710938 10.859375 8.734375 C 10.667969 8.136719 10.433594 7.554688 10.164062 6.988281 C 10.425781 6.429688 10.648438 5.855469 10.832031 5.269531 C 10.976562 5.308594 11.113281 5.355469 11.242188 5.398438 C 12.519531 5.835938 13.410156 6.484375 13.410156 6.984375 C 13.410156 7.519531 12.457031 8.210938 11.09375 8.664062 Z M 7 8.253906 C 7.691406 8.253906 8.253906 7.691406 8.253906 7 C 8.253906 6.308594 7.691406 5.746094 7 5.746094 C 6.308594 5.746094 5.746094 6.308594 5.746094 7 C 5.746094 7.691406 6.308594 8.253906 7 8.253906 Z M 7 8.253906 "/>
</g>
</svg>
