<?xml version="1.0" encoding="UTF-8"?>
<svg xmlns="http://www.w3.org/2000/svg" xmlns:xlink="http://www.w3.org/1999/xlink" width="18pt" height="18pt" viewBox="0 0 18 18" version="1.1">
<g id="surface1">
<path style=" stroke:none;fill-rule:nonzero;fill:rgb(46.27451%,29.019608%,73.72549%);fill-opacity:1;" d="M 12.472656 12.519531 C 13.136719 12.449219 13.640625 11.847656 13.617188 11.128906 C 13.59375 10.40625 13.023438 9.828125 12.335938 9.828125 L 12.289062 9.828125 C 11.578125 9.855469 11.027344 10.476562 11.050781 11.222656 C 11.074219 11.582031 11.210938 11.894531 11.417969 12.113281 C 10.640625 13.722656 9.449219 14.902344 7.660156 15.886719 C 6.449219 16.558594 5.1875 16.800781 3.929688 16.632812 C 2.898438 16.488281 2.097656 16.007812 1.59375 15.214844 C 0.859375 14.035156 0.789062 12.761719 1.410156 11.488281 C 1.84375 10.574219 2.53125 9.902344 2.964844 9.566406 C 2.875 9.253906 2.738281 8.722656 2.667969 8.339844 C -0.652344 10.863281 -0.308594 14.277344 0.699219 15.886719 C 1.453125 17.085938 2.988281 17.832031 4.683594 17.832031 C 5.140625 17.832031 5.601562 17.785156 6.058594 17.664062 C 8.992188 17.0625 11.210938 15.238281 12.472656 12.519531 Z M 16.503906 9.542969 C 14.761719 7.402344 12.195312 6.222656 9.265625 6.222656 L 8.898438 6.222656 C 8.691406 5.792969 8.257812 5.503906 7.777344 5.503906 L 7.730469 5.503906 C 7.019531 5.527344 6.472656 6.152344 6.492188 6.898438 C 6.515625 7.617188 7.089844 8.195312 7.777344 8.195312 L 7.820312 8.195312 C 8.324219 8.171875 8.761719 7.835938 8.945312 7.378906 L 9.355469 7.378906 C 11.097656 7.378906 12.746094 7.90625 14.234375 8.941406 C 15.382812 9.734375 16.207031 10.765625 16.664062 12.015625 C 17.054688 13.027344 17.03125 14.011719 16.617188 14.851562 C 15.976562 16.125 14.898438 16.824219 13.480469 16.824219 C 12.5625 16.824219 11.691406 16.535156 11.234375 16.320312 C 10.984375 16.558594 10.523438 16.945312 10.203125 17.183594 C 11.1875 17.664062 12.195312 17.929688 13.160156 17.929688 C 15.359375 17.929688 16.984375 16.65625 17.601562 15.382812 C 18.265625 13.988281 18.222656 11.582031 16.503906 9.542969 Z M 4.867188 12.929688 C 4.890625 13.652344 5.464844 14.226562 6.148438 14.226562 L 6.195312 14.226562 C 6.90625 14.203125 7.457031 13.578125 7.433594 12.832031 C 7.410156 12.113281 6.835938 11.535156 6.148438 11.535156 L 6.105469 11.535156 C 6.058594 11.535156 5.988281 11.535156 5.945312 11.558594 C 5.003906 9.925781 4.617188 8.148438 4.753906 6.222656 C 4.84375 4.78125 5.300781 3.53125 6.105469 2.5 C 6.769531 1.609375 8.050781 1.175781 8.921875 1.152344 C 11.351562 1.105469 12.378906 4.277344 12.449219 5.550781 C 12.746094 5.625 13.25 5.792969 13.59375 5.914062 C 13.320312 2.019531 11.027344 0 8.832031 0 C 6.769531 0 4.867188 1.5625 4.113281 3.871094 C 3.058594 6.945312 3.746094 9.902344 5.027344 12.234375 C 4.914062 12.402344 4.84375 12.664062 4.867188 12.929688 Z M 4.867188 12.929688 "/>
</g>
</svg>
