<?xml version="1.0" encoding="UTF-8"?>
<svg xmlns="http://www.w3.org/2000/svg" xmlns:xlink="http://www.w3.org/1999/xlink" width="18pt" height="18pt" viewBox="0 0 18 18" version="1.1">
<g id="surface1">
<path style=" stroke:none;fill-rule:nonzero;fill:rgb(46.27451%,29.019608%,73.72549%);fill-opacity:1;" d="M 11.808594 11.773438 C 12.328125 11.71875 12.726562 11.269531 12.707031 10.726562 C 12.691406 10.1875 12.238281 9.757812 11.699219 9.757812 L 11.664062 9.757812 C 11.105469 9.773438 10.675781 10.242188 10.691406 10.800781 C 10.710938 11.070312 10.816406 11.304688 10.980469 11.464844 C 10.367188 12.671875 9.433594 13.554688 8.027344 14.292969 C 7.074219 14.796875 6.085938 14.976562 5.09375 14.851562 C 4.285156 14.742188 3.652344 14.382812 3.257812 13.789062 C 2.683594 12.90625 2.628906 11.953125 3.113281 10.996094 C 3.457031 10.3125 3.996094 9.808594 4.339844 9.558594 C 4.265625 9.324219 4.15625 8.929688 4.105469 8.640625 C 1.492188 10.53125 1.765625 13.085938 2.554688 14.292969 C 3.148438 15.191406 4.355469 15.75 5.6875 15.75 C 6.046875 15.75 6.40625 15.714844 6.769531 15.625 C 9.070312 15.175781 10.816406 13.804688 11.808594 11.773438 Z M 11.808594 11.773438 "/>
<path style=" stroke:none;fill-rule:nonzero;fill:rgb(46.27451%,29.019608%,73.72549%);fill-opacity:1;" d="M 14.976562 9.539062 C 13.609375 7.9375 11.59375 7.054688 9.289062 7.054688 L 9 7.054688 C 8.839844 6.730469 8.496094 6.515625 8.117188 6.515625 L 8.082031 6.515625 C 7.523438 6.535156 7.09375 7.003906 7.109375 7.558594 C 7.128906 8.101562 7.578125 8.53125 8.117188 8.53125 L 8.152344 8.53125 C 8.550781 8.515625 8.890625 8.261719 9.035156 7.921875 L 9.359375 7.921875 C 10.726562 7.921875 12.023438 8.316406 13.195312 9.089844 C 14.09375 9.683594 14.742188 10.457031 15.101562 11.394531 C 15.40625 12.148438 15.390625 12.886719 15.066406 13.519531 C 14.5625 14.472656 13.714844 14.992188 12.601562 14.992188 C 11.878906 14.992188 11.195312 14.777344 10.835938 14.617188 C 10.636719 14.796875 10.277344 15.085938 10.027344 15.265625 C 10.800781 15.625 11.59375 15.820312 12.347656 15.820312 C 14.074219 15.820312 15.355469 14.867188 15.839844 13.914062 C 16.363281 12.871094 16.324219 11.070312 14.976562 9.539062 Z M 14.976562 9.539062 "/>
<path style=" stroke:none;fill-rule:nonzero;fill:rgb(46.27451%,29.019608%,73.72549%);fill-opacity:1;" d="M 5.832031 12.078125 C 5.851562 12.617188 6.300781 13.050781 6.839844 13.050781 L 6.875 13.050781 C 7.433594 13.03125 7.867188 12.5625 7.847656 12.007812 C 7.828125 11.464844 7.378906 11.035156 6.839844 11.035156 L 6.804688 11.035156 C 6.769531 11.035156 6.714844 11.035156 6.679688 11.050781 C 5.941406 9.828125 5.632812 8.496094 5.742188 7.054688 C 5.8125 5.976562 6.175781 5.039062 6.804688 4.265625 C 7.324219 3.601562 8.335938 3.277344 9.019531 3.257812 C 10.925781 3.222656 11.734375 5.597656 11.789062 6.550781 C 12.023438 6.605469 12.421875 6.730469 12.691406 6.820312 C 12.472656 3.90625 10.675781 2.394531 8.945312 2.394531 C 7.324219 2.394531 5.832031 3.5625 5.238281 5.292969 C 4.410156 7.597656 4.949219 9.808594 5.957031 11.554688 C 5.867188 11.683594 5.8125 11.878906 5.832031 12.078125 Z M 5.832031 12.078125 "/>
</g>
</svg>
