<?xml version="1.0" encoding="UTF-8"?>
<svg xmlns="http://www.w3.org/2000/svg" xmlns:xlink="http://www.w3.org/1999/xlink" width="18pt" height="18pt" viewBox="0 0 18 18" version="1.1">
<g id="surface1">
<path style=" stroke:none;fill-rule:nonzero;fill:rgb(0%,0%,0%);fill-opacity:1;" d="M 8.4375 2.121094 C 8.4375 1.824219 8.675781 1.585938 8.972656 1.585938 C 9.269531 1.585938 9.507812 1.824219 9.507812 2.121094 C 9.507812 2.417969 9.269531 2.65625 8.972656 2.65625 C 8.675781 2.65625 8.4375 2.417969 8.4375 2.121094 M 2.054688 6.964844 C 2.054688 6.667969 2.292969 6.429688 2.589844 6.429688 C 2.886719 6.429688 3.125 6.667969 3.125 6.964844 C 3.125 7.257812 2.886719 7.5 2.589844 7.5 C 2.292969 7.5 2.054688 7.257812 2.054688 6.964844 M 14.820312 6.988281 C 14.820312 6.691406 15.058594 6.453125 15.355469 6.453125 C 15.648438 6.453125 15.890625 6.691406 15.890625 6.988281 C 15.890625 7.285156 15.648438 7.523438 15.355469 7.523438 C 15.058594 7.523438 14.820312 7.285156 14.820312 6.988281 M 3.601562 7.722656 C 3.847656 7.613281 3.960938 7.324219 3.851562 7.078125 L 3.613281 6.542969 L 4.546875 6.542969 L 4.546875 10.75 L 2.664062 10.75 C 2.429688 9.933594 2.359375 9.078125 2.449219 8.234375 Z M 7.507812 7.828125 L 7.507812 6.585938 L 9.730469 6.585938 C 9.847656 6.585938 10.542969 6.71875 10.542969 7.238281 C 10.542969 7.671875 10.007812 7.824219 9.566406 7.824219 Z M 4.472656 14.503906 C 4.472656 14.207031 4.710938 13.96875 5.007812 13.96875 C 5.304688 13.96875 5.542969 14.207031 5.542969 14.503906 C 5.542969 14.800781 5.304688 15.039062 5.007812 15.039062 C 4.710938 15.039062 4.472656 14.800781 4.472656 14.503906 M 12.398438 14.527344 C 12.398438 14.234375 12.640625 13.992188 12.933594 13.992188 C 13.230469 13.992188 13.46875 14.234375 13.46875 14.527344 C 13.46875 14.824219 13.230469 15.0625 12.933594 15.0625 C 12.640625 15.0625 12.398438 14.824219 12.398438 14.527344 M 12.566406 13.316406 C 12.300781 13.257812 12.042969 13.425781 11.984375 13.691406 L 11.71875 14.945312 C 9.96875 15.734375 7.964844 15.726562 6.226562 14.917969 L 5.957031 13.664062 C 5.902344 13.398438 5.640625 13.230469 5.378906 13.289062 L 4.269531 13.527344 C 4.066406 13.316406 3.875 13.089844 3.699219 12.851562 L 9.082031 12.851562 C 9.144531 12.851562 9.183594 12.839844 9.183594 12.785156 L 9.183594 10.882812 C 9.183594 10.824219 9.144531 10.816406 9.082031 10.816406 L 7.507812 10.816406 L 7.507812 9.609375 L 9.210938 9.609375 C 9.363281 9.609375 10.039062 9.652344 10.257812 10.515625 L 10.574219 11.921875 C 10.675781 12.230469 11.089844 12.851562 11.527344 12.851562 L 14.304688 12.851562 C 14.121094 13.101562 13.914062 13.335938 13.695312 13.558594 Z M 15.554688 8.289062 C 15.59375 8.667969 15.597656 9.050781 15.570312 9.429688 L 14.894531 9.429688 C 14.828125 9.429688 14.796875 9.476562 14.796875 9.542969 L 14.796875 9.851562 C 14.796875 10.585938 14.386719 10.742188 14.023438 10.78125 C 13.683594 10.820312 13.300781 10.636719 13.253906 10.429688 C 13.050781 9.289062 12.714844 9.042969 12.183594 8.621094 C 12.847656 8.203125 13.535156 7.582031 13.535156 6.75 C 13.535156 5.855469 12.921875 5.289062 12.503906 5.011719 C 11.914062 4.625 11.261719 4.546875 11.089844 4.546875 L 4.09375 4.546875 C 5.058594 3.46875 6.355469 2.738281 7.777344 2.46875 L 8.601562 3.332031 C 8.789062 3.527344 9.097656 3.535156 9.292969 3.347656 L 10.214844 2.46875 C 12.117188 2.824219 13.765625 3.996094 14.722656 5.679688 L 14.09375 7.105469 C 13.984375 7.351562 14.09375 7.636719 14.339844 7.75 Z M 17.128906 8.308594 L 17.105469 8.089844 L 17.757812 7.484375 C 17.890625 7.359375 17.839844 7.113281 17.671875 7.050781 L 16.839844 6.738281 L 16.777344 6.523438 L 17.292969 5.804688 C 17.398438 5.660156 17.300781 5.425781 17.125 5.394531 L 16.246094 5.253906 L 16.144531 5.058594 L 16.511719 4.25 C 16.585938 4.082031 16.445312 3.875 16.265625 3.878906 L 15.375 3.910156 L 15.234375 3.742188 L 15.441406 2.875 C 15.480469 2.699219 15.304688 2.519531 15.125 2.5625 L 14.261719 2.765625 L 14.089844 2.625 L 14.121094 1.734375 C 14.128906 1.554688 13.917969 1.414062 13.753906 1.488281 L 12.945312 1.859375 L 12.746094 1.753906 L 12.605469 0.875 C 12.578125 0.699219 12.34375 0.601562 12.195312 0.707031 L 11.476562 1.226562 L 11.261719 1.160156 L 10.953125 0.328125 C 10.890625 0.160156 10.640625 0.113281 10.519531 0.242188 L 9.910156 0.894531 L 9.691406 0.871094 L 9.222656 0.117188 C 9.128906 -0.0390625 8.875 -0.0390625 8.78125 0.117188 L 8.3125 0.871094 L 8.089844 0.894531 L 7.484375 0.242188 C 7.359375 0.109375 7.113281 0.160156 7.050781 0.328125 L 6.738281 1.160156 L 6.527344 1.222656 L 5.804688 0.707031 C 5.660156 0.601562 5.425781 0.699219 5.398438 0.875 L 5.253906 1.75 L 5.058594 1.855469 L 4.25 1.488281 C 4.085938 1.414062 3.875 1.554688 3.882812 1.734375 L 3.914062 2.625 L 3.742188 2.765625 L 2.875 2.558594 C 2.699219 2.519531 2.519531 2.695312 2.5625 2.875 L 2.765625 3.738281 L 2.625 3.910156 L 1.738281 3.878906 C 1.554688 3.875 1.414062 4.082031 1.492188 4.246094 L 1.859375 5.054688 L 1.753906 5.253906 L 0.875 5.394531 C 0.699219 5.421875 0.601562 5.65625 0.707031 5.804688 L 1.226562 6.523438 L 1.160156 6.738281 L 0.328125 7.046875 C 0.160156 7.109375 0.113281 7.359375 0.242188 7.480469 L 0.894531 8.089844 L 0.871094 8.308594 L 0.117188 8.777344 C -0.0390625 8.871094 -0.0390625 9.125 0.117188 9.21875 L 0.871094 9.6875 L 0.894531 9.910156 L 0.242188 10.515625 C 0.109375 10.640625 0.160156 10.886719 0.328125 10.953125 L 1.160156 11.261719 L 1.222656 11.476562 L 0.707031 12.195312 C 0.601562 12.34375 0.699219 12.574219 0.875 12.605469 L 1.75 12.746094 L 1.855469 12.945312 L 1.488281 13.75 C 1.414062 13.914062 1.554688 14.125 1.734375 14.121094 L 2.621094 14.089844 L 2.761719 14.261719 L 2.558594 15.125 C 2.519531 15.300781 2.695312 15.480469 2.871094 15.4375 L 3.738281 15.234375 L 3.910156 15.375 L 3.878906 16.265625 C 3.871094 16.445312 4.082031 16.585938 4.246094 16.511719 L 5.054688 16.140625 L 5.25 16.246094 L 5.394531 17.125 C 5.421875 17.300781 5.65625 17.398438 5.804688 17.292969 L 6.523438 16.773438 L 6.738281 16.839844 L 7.046875 17.671875 C 7.109375 17.839844 7.359375 17.886719 7.480469 17.757812 L 8.089844 17.105469 L 8.308594 17.128906 L 8.777344 17.886719 C 8.871094 18.039062 9.125 18.039062 9.21875 17.886719 L 9.6875 17.128906 L 9.90625 17.105469 L 10.515625 17.757812 C 10.636719 17.886719 10.886719 17.839844 10.949219 17.671875 L 11.257812 16.839844 L 11.472656 16.773438 L 12.191406 17.292969 C 12.339844 17.398438 12.574219 17.300781 12.601562 17.125 L 12.746094 16.246094 L 12.941406 16.140625 L 13.75 16.511719 C 13.914062 16.585938 14.125 16.445312 14.117188 16.265625 L 14.085938 15.375 L 14.257812 15.234375 L 15.121094 15.4375 C 15.300781 15.480469 15.476562 15.300781 15.4375 15.125 L 15.230469 14.261719 L 15.371094 14.089844 L 16.261719 14.121094 C 16.441406 14.128906 16.582031 13.914062 16.507812 13.75 L 16.140625 12.945312 L 16.242188 12.746094 L 17.121094 12.605469 C 17.296875 12.578125 17.394531 12.34375 17.289062 12.195312 L 16.773438 11.476562 L 16.835938 11.261719 L 17.667969 10.953125 C 17.835938 10.886719 17.886719 10.640625 17.753906 10.515625 L 17.101562 9.910156 L 17.125 9.691406 L 17.882812 9.222656 C 18.035156 9.128906 18.035156 8.875 17.882812 8.78125 Z M 17.128906 8.308594 "/>
</g>
</svg>
