<?xml version="1.0" encoding="UTF-8"?>
<svg xmlns="http://www.w3.org/2000/svg" xmlns:xlink="http://www.w3.org/1999/xlink" width="18pt" height="18pt" viewBox="0 0 18 18" version="1.1">
<g id="surface1">
<path style=" stroke:none;fill-rule:nonzero;fill:rgb(96.470588%,74.117647%,22.745098%);fill-opacity:1;" d="M 7.800781 9.691406 L 10.230469 8.28125 L 12.628906 9.691406 L 10.230469 11.070312 L 7.800781 9.71875 Z M 0.511719 5.519531 L 10.230469 0 L 17.460938 4.109375 L 15.058594 8.28125 L 10.230469 5.519531 L 2.941406 9.660156 Z M 0.511719 5.519531 "/>
<path style=" stroke:none;fill-rule:nonzero;fill:rgb(92.156863%,54.901961%,13.72549%);fill-opacity:1;" d="M 7.800781 15.210938 L 7.800781 12.449219 L 10.199219 11.070312 L 12.628906 9.691406 L 12.628906 12.449219 L 10.230469 13.828125 L 10.230469 16.589844 L 7.800781 18 Z M 7.800781 9.691406 L 5.371094 8.308594 L 2.941406 9.660156 L 2.941406 6.898438 L 10.230469 2.761719 L 10.230469 8.28125 Z M 15.03125 6.898438 L 15.03125 5.519531 L 17.460938 4.109375 L 17.488281 6.871094 L 15.058594 8.28125 Z M 15.03125 6.898438 "/>
<path style=" stroke:none;fill-rule:nonzero;fill:rgb(89.019608%,35.294118%,16.862745%);fill-opacity:1;" d="M 5.371094 16.53125 L 5.371094 8.308594 L 7.769531 6.960938 L 7.800781 9.691406 L 10.230469 11.039062 L 10.230469 13.832031 L 7.800781 12.539062 L 7.800781 18 Z M 1.710938 8.941406 L 0.511719 8.21875 L 0.511719 5.519531 L 2.941406 6.898438 L 2.941406 9.660156 Z M 10.230469 5.519531 L 10.230469 2.761719 L 15.03125 5.519531 L 15.058594 8.28125 Z M 10.230469 5.519531 "/>
</g>
</svg>
