<?xml version="1.0" encoding="UTF-8"?>
<svg xmlns="http://www.w3.org/2000/svg" xmlns:xlink="http://www.w3.org/1999/xlink" width="32pt" height="36pt" viewBox="0 0 32 36" version="1.1">
<g id="surface1">
<path style=" stroke:none;fill-rule:nonzero;fill:rgb(0%,0%,0%);fill-opacity:1;" d="M 28.570312 2.25 L 3.429688 2.25 C 1.535156 2.25 0 3.761719 0 5.625 L 0 30.375 C 0 32.238281 1.535156 33.75 3.429688 33.75 L 28.570312 33.75 C 30.464844 33.75 32 32.238281 32 30.375 L 32 5.625 C 32 3.761719 30.464844 2.25 28.570312 2.25 Z M 25.078125 13.414062 C 25.09375 13.613281 25.09375 13.816406 25.09375 14.011719 C 25.09375 20.109375 20.378906 27.132812 11.765625 27.132812 C 9.105469 27.132812 6.644531 26.375 4.570312 25.066406 C 4.949219 25.109375 5.3125 25.121094 5.699219 25.121094 C 7.894531 25.121094 9.90625 24.390625 11.515625 23.152344 C 9.457031 23.113281 7.730469 21.78125 7.136719 19.953125 C 7.855469 20.058594 8.507812 20.058594 9.25 19.871094 C 7.105469 19.441406 5.5 17.585938 5.5 15.34375 L 5.5 15.285156 C 6.121094 15.628906 6.851562 15.839844 7.613281 15.871094 C 6.308594 15.015625 5.527344 13.574219 5.527344 12.03125 C 5.527344 11.171875 5.757812 10.386719 6.164062 9.703125 C 8.472656 12.5 11.9375 14.328125 15.820312 14.527344 C 15.15625 11.398438 17.535156 8.859375 20.394531 8.859375 C 21.742188 8.859375 22.957031 9.414062 23.8125 10.316406 C 24.871094 10.117188 25.886719 9.730469 26.785156 9.203125 C 26.4375 10.273438 25.699219 11.171875 24.730469 11.742188 C 25.671875 11.644531 26.585938 11.382812 27.429688 11.023438 C 26.792969 11.945312 25.992188 12.761719 25.078125 13.414062 Z M 25.078125 13.414062 "/>
</g>
</svg>
