<?xml version="1.0" encoding="UTF-8"?>
<svg xmlns="http://www.w3.org/2000/svg" xmlns:xlink="http://www.w3.org/1999/xlink" width="24pt" height="27pt" viewBox="0 0 24 27" version="1.1">
<g id="surface1">
<path style=" stroke:none;fill-rule:nonzero;fill:rgb(0%,0%,0%);fill-opacity:1;" d="M 21.429688 1.6875 L 2.570312 1.6875 C 1.152344 1.6875 0 2.820312 0 4.21875 L 0 22.78125 C 0 24.179688 1.152344 25.3125 2.570312 25.3125 L 21.429688 25.3125 C 22.847656 25.3125 24 24.179688 24 22.78125 L 24 4.21875 C 24 2.820312 22.847656 1.6875 21.429688 1.6875 Z M 18.808594 10.0625 C 18.820312 10.210938 18.820312 10.363281 18.820312 10.511719 C 18.820312 15.082031 15.285156 20.351562 8.824219 20.351562 C 6.832031 20.351562 4.980469 19.78125 3.429688 18.800781 C 3.710938 18.832031 3.984375 18.84375 4.273438 18.84375 C 5.917969 18.84375 7.429688 18.292969 8.636719 17.367188 C 7.09375 17.332031 5.796875 16.335938 5.351562 14.964844 C 5.894531 15.046875 6.378906 15.046875 6.9375 14.902344 C 5.332031 14.582031 4.125 13.1875 4.125 11.507812 L 4.125 11.464844 C 4.589844 11.722656 5.136719 11.882812 5.710938 11.902344 C 4.730469 11.261719 4.144531 10.179688 4.144531 9.023438 C 4.144531 8.378906 4.316406 7.789062 4.625 7.277344 C 6.355469 9.375 8.953125 10.746094 11.867188 10.894531 C 11.367188 8.546875 13.152344 6.644531 15.292969 6.644531 C 16.308594 6.644531 17.21875 7.0625 17.859375 7.734375 C 18.652344 7.589844 19.414062 7.296875 20.089844 6.902344 C 19.828125 7.703125 19.273438 8.378906 18.546875 8.804688 C 19.253906 8.734375 19.9375 8.539062 20.570312 8.269531 C 20.09375 8.960938 19.496094 9.570312 18.808594 10.0625 Z M 18.808594 10.0625 "/>
</g>
</svg>
