<?xml version="1.0" encoding="UTF-8"?>
<svg xmlns="http://www.w3.org/2000/svg" xmlns:xlink="http://www.w3.org/1999/xlink" width="18pt" height="18pt" viewBox="0 0 18 18" version="1.1">
<g id="surface1">
<path style=" stroke:none;fill-rule:nonzero;fill:rgb(0%,47.843137%,80%);fill-opacity:1;" d="M 0 9 L 0 18 L 18 18 L 18 0 L 0 0 Z M 14.507812 8.28125 C 14.964844 8.398438 15.3125 8.601562 15.632812 8.929688 C 15.796875 9.109375 16.042969 9.429688 16.0625 9.507812 C 16.070312 9.53125 15.285156 10.058594 14.8125 10.351562 C 14.792969 10.363281 14.726562 10.289062 14.648438 10.175781 C 14.417969 9.835938 14.175781 9.691406 13.804688 9.664062 C 13.257812 9.628906 12.902344 9.914062 12.910156 10.390625 C 12.910156 10.53125 12.929688 10.613281 12.984375 10.730469 C 13.105469 10.976562 13.328125 11.125 14.027344 11.429688 C 15.316406 11.984375 15.867188 12.347656 16.210938 12.871094 C 16.59375 13.449219 16.679688 14.375 16.417969 15.0625 C 16.132812 15.8125 15.425781 16.320312 14.429688 16.488281 C 14.121094 16.542969 13.386719 16.535156 13.058594 16.476562 C 12.335938 16.347656 11.648438 15.988281 11.226562 15.519531 C 11.058594 15.339844 10.738281 14.859375 10.757812 14.828125 C 10.765625 14.816406 10.839844 14.769531 10.921875 14.71875 L 11.589844 14.335938 L 12.109375 14.035156 L 12.21875 14.195312 C 12.367188 14.425781 12.699219 14.742188 12.898438 14.851562 C 13.476562 15.152344 14.261719 15.109375 14.652344 14.761719 C 14.816406 14.609375 14.886719 14.453125 14.886719 14.222656 C 14.886719 14.011719 14.859375 13.921875 14.75 13.765625 C 14.613281 13.5625 14.324219 13.394531 13.515625 13.042969 C 12.585938 12.644531 12.1875 12.394531 11.820312 12 C 11.609375 11.773438 11.410156 11.40625 11.324219 11.101562 C 11.257812 10.847656 11.238281 10.210938 11.292969 9.953125 C 11.484375 9.050781 12.164062 8.429688 13.140625 8.242188 C 13.457031 8.183594 14.195312 8.207031 14.503906 8.285156 Z M 10.28125 9.035156 L 10.285156 9.769531 L 7.941406 9.769531 L 7.941406 16.429688 L 6.285156 16.429688 L 6.285156 9.769531 L 3.941406 9.769531 L 3.941406 9.046875 L 3.960938 8.304688 C 3.972656 8.292969 5.398438 8.289062 7.125 8.292969 L 10.273438 8.300781 Z M 10.28125 9.035156 "/>
</g>
</svg>
